<svg width="28" height="19" viewBox="0 0 28 19" fill="none" xmlns="http://www.w3.org/2000/svg">
<g clip-path="url(#clip0_270_1585)">
<path d="M0.00427246 0H27.0774V18.2927H0.00427246V0Z" fill="#3F9C35"/>
<path d="M0.00427246 0H27.0774V12.1951H0.00427246V0Z" fill="#ED2939"/>
<path d="M0.00427246 0H27.0774V6.09756H0.00427246V0Z" fill="#00B9E4"/>
<path d="M12.622 11.8902C14.1374 11.8902 15.3659 10.6618 15.3659 9.14634C15.3659 7.63092 14.1374 6.40244 12.622 6.40244C11.1065 6.40244 9.87805 7.63092 9.87805 9.14634C9.87805 10.6618 11.1065 11.8902 12.622 11.8902Z" fill="white"/>
<path d="M13.2317 11.4329C14.4945 11.4329 15.5182 10.4092 15.5182 9.14633C15.5182 7.88348 14.4945 6.85974 13.2317 6.85974C11.9688 6.85974 10.9451 7.88348 10.9451 9.14633C10.9451 10.4092 11.9688 11.4329 13.2317 11.4329Z" fill="#ED2939"/>
<path d="M15.6708 7.62195L15.9624 8.44215L16.7486 8.06844L16.3749 8.85465L17.1951 9.14634L16.3749 9.43803L16.7486 10.2242L15.9624 9.85053L15.6708 10.6707L15.3791 9.85053L14.5929 10.2242L14.9666 9.43803L14.1464 9.14634L14.9666 8.85465L14.5929 8.06844L15.3791 8.44215L15.6708 7.62195Z" fill="white"/>
</g>
<defs>
<clipPath id="clip0_270_1585">
<rect width="27.0732" height="18.2927" rx="5" fill="white"/>
</clipPath>
</defs>
</svg>
