<svg width="74" height="74" viewBox="0 0 74 74" fill="none" xmlns="http://www.w3.org/2000/svg">
<path d="M69.9531 23.7031C69.9531 20.5234 67.3516 17.9219 64.1719 17.9219H11.5625C8.38281 17.9219 5.78125 20.5234 5.78125 23.7031V52.0312C5.78125 55.2109 8.38281 57.8125 11.5625 57.8125H64.1719C67.3516 57.8125 69.9531 55.2109 69.9531 52.0312V23.7031ZM67.6406 52.0312C67.6406 53.9391 66.0797 55.5 64.1719 55.5H11.5625C9.65469 55.5 8.09375 53.9391 8.09375 52.0312V23.7031C8.09375 21.7953 9.65469 20.2344 11.5625 20.2344H64.1719C66.0797 20.2344 67.6406 21.7953 67.6406 23.7031V52.0312Z" fill="#3B97D3"/>
<path d="M18.0953 22.3734C18.0953 22.0266 18.0375 21.3906 18.0375 21.3906H16.8813C16.9391 21.3906 16.9969 21.9687 16.9969 22.3734C16.9969 26.1312 14.0484 29.1375 10.2906 29.1375C9.94375 29.1375 9.30781 29.0797 9.30781 29.0219V30.1781C9.30781 30.2359 9.88594 30.2937 10.2906 30.2937C14.6266 30.2359 18.0953 26.7672 18.0953 22.3734ZM10.2328 44.9781C9.88594 44.9781 9.25 45.0359 9.25 45.0359V46.1922C9.25 46.1344 9.82813 46.0766 10.2328 46.0766C13.9906 46.0766 16.9969 49.2562 16.9969 53.0141C16.9969 53.4187 16.8813 53.7078 16.8234 54.2859H17.9797C18.0375 53.7078 18.0953 53.3609 18.0953 53.0141C18.0953 48.6781 14.6266 44.9781 10.2328 44.9781ZM64.3453 29.0219C60.5875 29.0219 57.5812 26.0734 57.5812 22.3156C57.5812 21.9687 57.6391 21.3328 57.6969 21.3328H56.5406C56.4828 21.3328 56.4828 21.9109 56.4828 22.3156C56.4828 26.7094 59.9516 30.2359 64.3453 30.2359C64.9234 30.2359 65.3281 30.1203 65.9062 30.0047V28.7906C65.3281 28.9641 64.9234 29.0219 64.3453 29.0219ZM64.3453 46.1344C64.9234 46.1344 65.3281 46.1922 65.9062 46.3656V45.0937C65.3281 44.9781 64.9234 44.9203 64.3453 44.9203C59.9516 44.9203 56.425 48.6203 56.425 53.0141C56.425 53.4187 56.4828 53.7078 56.5406 54.2859H57.6969C57.6391 53.7078 57.5234 53.3609 57.5234 53.0141C57.6391 49.3141 60.6453 46.1344 64.3453 46.1344Z" fill="#3B97D3"/>
<path d="M37.5782 23.8188C29.947 23.8188 23.8188 30.0047 23.8188 37.5781C23.8188 45.2094 30.0048 51.3375 37.5782 51.3375C45.1517 51.3375 51.3376 45.1516 51.3376 37.5781C51.3376 30.0047 45.2095 23.8188 37.5782 23.8188ZM37.5782 50.2391C30.6407 50.2391 24.9751 44.5734 24.9751 37.6359C24.9751 30.6984 30.6407 24.975 37.5782 24.975C44.5157 24.975 50.1813 30.6406 50.1813 37.6359C50.1813 44.6313 44.5157 50.2391 37.5782 50.2391Z" fill="#2C3E50"/>
<path d="M36.4221 43.1859C35.8439 43.1281 34.7455 42.8391 34.0518 42.3766L34.8033 40.5844C35.5549 41.1047 36.3643 41.3937 37.1158 41.3937C38.2721 41.3937 38.8502 40.9891 38.8502 40.1797C38.8502 39.775 38.6768 39.4281 38.3877 39.0812C38.0986 38.7344 37.5205 38.3297 36.7111 37.925C35.9018 37.5203 35.3236 37.1734 35.0346 36.8844C34.7455 36.5953 34.5143 36.3062 34.3408 35.9016C34.1674 35.4969 34.1096 35.15 34.1096 34.6875C34.1096 33.9937 34.283 33.4156 34.7455 32.8953C35.208 32.375 35.9018 32.0281 36.4799 31.8547V30.6406H38.2721V31.8547C39.1971 31.9703 39.8908 32.1438 40.3533 32.4906L39.7752 34.1672C39.0814 33.6469 38.3299 33.4156 37.5783 33.4156C37.1158 33.4156 36.7689 33.5313 36.5377 33.7625C36.3064 33.9938 36.1908 34.3406 36.1908 34.6875C36.1908 35.3234 36.8846 35.9594 38.3299 36.6531C39.0814 37 39.6018 37.3469 39.9486 37.6359C40.2955 37.925 40.5268 38.2719 40.7002 38.6766C40.8736 39.0813 40.9314 39.5438 40.9314 40.0641C40.9314 40.7578 40.7002 41.3938 40.2377 41.9141C39.7752 42.4344 38.908 42.7813 38.3299 43.0125V44.5156H36.5955V43.1859H36.4221Z" fill="#3B97D3"/>
</svg>
