<svg width="27" height="18" viewBox="0 0 27 18" fill="none" xmlns="http://www.w3.org/2000/svg">
<path d="M0 0.000157925H27V18H0V0.000157925Z" fill="#F0F0F0"/>
<path d="M15.1875 0H11.8125V7.31232H0V10.6873H11.8125V17.9996H15.1875V10.6873H27V7.31232H15.1875V0Z" fill="#D80027"/>
<path d="M20.766 12.1301L27 15.5935V12.1301H20.766ZM16.4348 12.1301L27 18V16.3398L19.4224 12.1301H16.4348ZM24.1858 17.9996L16.4348 13.6932V17.9996H24.1858Z" fill="#0052B4"/>
<path d="M16.4348 12.1301L27 18V16.3398L19.4224 12.1301H16.4348Z" fill="#F0F0F0"/>
<path d="M16.4348 12.1301L27 18V16.3398L19.4224 12.1301H16.4348Z" fill="#D80027"/>
<path d="M4.76408 12.13L0 14.7767V12.13H4.76408ZM10.5652 12.8764V17.9995H1.34425L10.5652 12.8764Z" fill="#0052B4"/>
<path d="M7.57756 12.1301L0 16.3398V18L10.5652 12.1301H7.57756Z" fill="#D80027"/>
<path d="M6.23399 5.86943L0 2.40612V5.86943H6.23399ZM10.5652 5.86943L0 0.000157925V1.65973L7.57756 5.86943H10.5652ZM2.81422 0L10.5652 4.30642V0H2.81422Z" fill="#0052B4"/>
<path d="M10.5652 5.86943L0 0.000157925V1.65973L7.57756 5.86943H10.5652Z" fill="#F0F0F0"/>
<path d="M10.5652 5.86943L0 0.000157925V1.65973L7.57756 5.86943H10.5652Z" fill="#D80027"/>
<path d="M22.2359 5.86954L27 3.22285V5.86954H22.2359ZM16.4348 5.12315V5.24783e-05H25.6558L16.4348 5.12315Z" fill="#0052B4"/>
<path d="M19.4224 5.86943L27 1.65973V0.000157925L16.4348 5.86943H19.4224Z" fill="#D80027"/>
</svg>
