<svg width="35" height="36" viewBox="0 0 35 36" fill="none" xmlns="http://www.w3.org/2000/svg">
<path d="M0.133188 18.408C0.133188 26.4 5.53319 33.168 12.8412 35.22V23.664H9.70919V18.336H12.8412V15.132C12.8412 11.82 13.9572 9.732 16.1172 8.904C17.0892 8.508 18.1332 8.364 19.1412 8.364H23.9292V13.548H21.1572C20.2932 13.548 19.7172 13.8 19.3572 14.268C19.2132 14.556 19.1412 15.096 19.1412 15.888V18.336H24.1452L23.4972 23.664H19.1412V35.796C28.0692 34.968 34.9812 27.516 34.9812 18.408C34.9812 8.76 27.2052 0.983998 17.5572 1.02C7.90919 1.056 0.133188 8.76 0.133188 18.408Z" fill="white"/>
</svg>
