<svg width="40" height="40" viewBox="0 0 40 40" fill="none" xmlns="http://www.w3.org/2000/svg">
<path fill-rule="evenodd" clip-rule="evenodd" d="M37.3333 4.83333H34.7968C33.9046 2.30876 31.4968 0.5 28.6667 0.5C25.8366 0.5 23.4288 2.30876 22.5365 4.83333H2.66667C1.47006 4.83333 0.5 5.80339 0.5 7C0.5 8.19661 1.47006 9.16667 2.66667 9.16667H22.5365C23.4288 11.6912 25.8366 13.5 28.6667 13.5C31.4968 13.5 33.9046 11.6912 34.7968 9.16667H37.3333C38.53 9.16667 39.5 8.19661 39.5 7C39.5 5.80339 38.53 4.83333 37.3333 4.83333ZM28.6667 9.16667C29.8633 9.16667 30.8333 8.19661 30.8333 7C30.8333 5.80339 29.8633 4.83333 28.6667 4.83333C27.47 4.83333 26.5 5.80339 26.5 7C26.5 8.19661 27.47 9.16667 28.6667 9.16667ZM0.5 20C0.5 18.8034 1.47006 17.8333 2.66667 17.8333H5.20321C6.0955 15.3088 8.50319 13.5 11.3333 13.5C14.1635 13.5 16.5713 15.3088 17.4635 17.8333H37.3333C38.53 17.8333 39.5 18.8034 39.5 20C39.5 21.1967 38.53 22.1667 37.3333 22.1667H17.4635C16.5713 24.6913 14.1635 26.5 11.3333 26.5C8.50319 26.5 6.0955 24.6913 5.20321 22.1667H2.66667C1.47006 22.1667 0.5 21.1967 0.5 20ZM11.3333 22.1667C12.53 22.1667 13.5 21.1967 13.5 20C13.5 18.8034 12.53 17.8333 11.3333 17.8333C10.1367 17.8333 9.16667 18.8034 9.16667 20C9.16667 21.1967 10.1367 22.1667 11.3333 22.1667ZM2.66667 30.8333C1.47006 30.8333 0.5 31.8034 0.5 33C0.5 34.1967 1.47006 35.1667 2.66667 35.1667H22.5365C23.4288 37.6913 25.8366 39.5 28.6667 39.5C31.4968 39.5 33.9046 37.6913 34.7968 35.1667H37.3333C38.53 35.1667 39.5 34.1967 39.5 33C39.5 31.8034 38.53 30.8333 37.3333 30.8333H34.7968C33.9046 28.3087 31.4968 26.5 28.6667 26.5C25.8366 26.5 23.4288 28.3087 22.5365 30.8333H2.66667ZM30.8333 33C30.8333 34.1967 29.8633 35.1667 28.6667 35.1667C27.47 35.1667 26.5 34.1967 26.5 33C26.5 31.8034 27.47 30.8333 28.6667 30.8333C29.8633 30.8333 30.8333 31.8034 30.8333 33Z" fill="#555555"/>
</svg>
