<svg width="228" height="58" viewBox="0 0 228 58" fill="none" xmlns="http://www.w3.org/2000/svg">
<path d="M30.3646 53.8164L30.3647 53.8165L30.3699 53.8113L39.005 45.1856C44.0661 40.1365 44.0655 31.9438 39.0054 26.8842L39.0053 26.884L30.3699 18.2581L30.3696 18.2579C30.1212 18.01 29.8604 17.7716 29.5901 17.5426C34.3149 14.3233 40.7171 14.8925 44.8002 18.9658L53.4466 27.5918L53.7997 27.2378L53.4466 27.5918L53.4564 27.6015L53.4573 27.6024L53.4578 27.6029C58.1271 32.2723 58.1264 39.8306 53.447 44.4883L53.4468 44.4884L44.8006 53.1031C40.707 57.1768 34.3138 57.7363 29.5891 54.525C29.8567 54.2964 30.1135 54.06 30.3646 53.8164Z" fill="white" stroke="#93CCEF"/>
<path d="M12.3035 38.489L3.65704 29.8631M12.3035 38.489C16.6022 42.7669 23.3348 43.3245 28.2675 39.8884C28.1298 39.7825 27.9941 39.6735 27.8608 39.5612M12.3035 38.489L12.6562 38.1346M12.3035 38.489L12.6566 38.1351L12.6562 38.1346M3.65704 29.8631L28.2871 2.87398C27.9914 3.11989 27.7079 3.37634 27.4403 3.64335L18.7938 12.2693C13.9288 17.1338 13.9288 25.0096 18.7938 29.8631L27.4403 38.489C27.7065 38.7622 27.9885 39.0198 28.2825 39.2616C28.1435 39.3649 28.0029 39.4647 27.8608 39.5612M3.65704 29.8631C-1.21902 25.0096 -1.21902 17.1227 3.65704 12.2693V29.8631ZM27.8608 39.5612C27.5916 39.3343 27.332 39.0941 27.0847 38.8406C27.0839 38.8397 27.083 38.8389 27.0822 38.838L18.4407 30.2171C13.3797 25.168 13.3802 16.9752 18.4403 11.9157L18.4407 11.9153L27.0871 3.28938C27.3356 3.04152 27.5964 2.80312 27.8667 2.57411C23.1419 -0.645254 16.7396 -0.076022 12.6566 3.99732L4.01018 12.6233L4.00978 12.6237C-0.669926 17.2817 -0.669926 24.8507 4.00978 29.5087L4.01018 29.5091L12.6562 38.1346M27.8608 39.5612C23.1368 42.7673 16.7478 42.2064 12.6562 38.1346" fill="white" stroke="#93CCEF"/>
<path d="M18.4406 27.1706L18.4408 27.1704L27.0867 18.5561L27.0873 18.5555M18.4406 27.1706L45.0758 18.9097C40.1998 14.0452 32.3052 14.0452 27.4402 18.9097L27.0873 18.5555M18.4406 27.1706C18.189 27.4217 17.9486 27.6785 17.72 27.9464C14.5042 23.2343 15.0653 16.8598 19.1473 12.7773L27.7933 4.15176L27.7937 4.15136C32.4635 -0.517901 40.0525 -0.517901 44.7223 4.15136L44.7227 4.15176L53.3691 12.7777C57.4523 16.8512 58.0221 23.2378 54.7942 27.9505C54.5641 27.6801 54.3245 27.4192 54.0754 27.1707L54.0752 27.1704L45.429 18.5557M18.4406 27.1706L45.429 18.5557M27.0873 18.5555C32.1478 13.4962 40.3582 13.497 45.429 18.5557M27.0873 18.5555L45.429 18.5557" fill="white" stroke="#93CCEF"/>
<path d="M38.9386 30.2502L38.9385 30.2502L30.2925 38.8757L30.2921 38.8761M38.9386 30.2502L2.88548 29.0511C3.13203 29.3462 3.38917 29.6292 3.65689 29.8962L12.3033 38.5222C17.1794 43.3867 25.074 43.3867 29.939 38.5222L30.2921 38.8761M38.9386 30.2502L38.9435 30.2452C39.1846 29.9978 39.426 29.7416 39.6578 29.4725C42.8751 34.1848 42.3145 40.5604 38.2318 44.6436L29.5858 53.2691L29.5854 53.2695C24.9157 57.9388 17.3266 57.9388 12.6569 53.2695L12.6565 53.2691L4.01002 44.6432C-0.0731465 40.5697 -0.642951 34.1831 2.58493 29.4703M38.9386 30.2502L2.58493 29.4703M30.2921 38.8761C25.2316 43.9357 17.0211 43.935 11.9502 38.8761L3.30376 30.2502C3.05464 30.0017 2.81506 29.7408 2.58493 29.4703M30.2921 38.8761L2.58493 29.4703" fill="white" stroke="#93CCEF"/>
<path d="M89.2036 17.7073C91.9678 17.7073 94.1571 18.4464 95.7825 19.9024C96.5896 19.1744 97.5515 18.6229 98.6572 18.2478C99.7629 17.8838 100.935 17.6963 102.173 17.6963C103.467 17.6963 104.65 17.8617 105.734 18.2037C106.806 18.5456 107.746 19.042 108.531 19.6818C109.316 20.3216 109.946 21.1378 110.433 22.1085C110.919 23.0792 111.207 24.1933 111.306 25.4287V39.5369H106.132V25.9692C106.132 24.7559 105.822 23.8293 105.214 23.2006C104.606 22.5718 103.622 22.2519 102.251 22.2519C101.034 22.2519 100.095 22.627 99.4423 23.366C98.7789 24.1161 98.414 25.164 98.3366 26.5318V39.5369H93.1509V26.4656C93.0956 25.881 92.9961 25.3295 92.8303 24.811C92.6644 24.2926 92.4322 23.8403 92.1226 23.4653C91.8131 23.0903 91.4371 22.7924 90.9617 22.5718C90.4973 22.3622 89.9334 22.2519 89.27 22.2519C88.0537 22.2519 87.1139 22.627 86.4616 23.366C85.7981 24.1161 85.4333 25.164 85.3559 26.5318V39.5369H80.1813V25.4839C80.2808 24.1933 80.5904 23.0682 81.099 22.0865C81.6076 21.1158 82.26 20.2995 83.0782 19.6597C83.8853 19.02 84.8141 18.5236 85.8534 18.2037C86.8928 17.8728 88.0095 17.7073 89.2036 17.7073Z" fill="white"/>
<path d="M122.241 39.5482V33.0291C121.18 32.8306 120.152 32.5217 119.179 32.1026C118.206 31.6834 117.332 31.165 116.569 30.5252C115.806 29.8964 115.187 29.1574 114.712 28.3301C114.225 27.4918 113.949 26.5652 113.871 25.5283V17.862H119.046V24.9878C119.422 26.2012 120.141 27.1278 121.191 27.7565C122.241 28.3852 123.458 28.7051 124.818 28.7051C125.426 28.7051 126.067 28.6059 126.741 28.4183C127.416 28.2308 128.024 27.955 128.588 27.58C129.141 27.216 129.616 26.7637 129.992 26.2343C130.368 25.7048 130.589 25.0981 130.633 24.4142V17.851H135.808V25.4732C135.731 26.5321 135.443 27.4918 134.935 28.3522C134.426 29.2125 133.785 29.9626 133 30.5914C132.215 31.2201 131.341 31.7385 130.379 32.1467C129.417 32.5548 128.422 32.8416 127.416 33.0181V39.5372H122.241V39.5482Z" fill="white"/>
<path d="M149.541 17.8619H154.715V28.33C156.164 30.2272 158.099 32.2458 160.531 34.3968C161.493 33.6136 162.455 32.7312 163.417 31.7384C164.379 30.7567 165.341 29.6095 166.303 28.33V17.8619H171.478V29.9184C170.162 31.5399 168.702 33.2055 167.11 34.9263C165.518 36.6471 163.76 38.1913 161.858 39.5591H159.116C157.469 38.1913 155.788 36.7132 154.063 35.1028C152.338 33.4923 150.834 31.7715 149.541 29.9294V17.8619Z" fill="white"/>
<path d="M174.065 39.5481V17.8619H179.239V39.5591H174.065V39.5481Z" fill="white"/>
<path d="M192.917 39.5481H181.97V34.9924H192.198C192.806 34.9924 193.447 34.9814 194.133 34.9593C194.818 34.9373 195.449 34.8601 196.013 34.7277C196.588 34.6063 197.063 34.4078 197.439 34.1541C197.815 33.9004 198.014 33.5474 198.014 33.0952C198.014 32.2899 197.583 31.7825 196.72 31.5729C195.858 31.3744 194.575 31.2641 192.883 31.2641C191.59 31.2641 190.285 31.1979 188.969 31.0766C187.654 30.9552 186.459 30.6684 185.398 30.2382C184.337 29.808 183.474 29.1793 182.811 28.341C182.147 27.5026 181.827 26.3665 181.827 24.9325C181.827 23.2338 182.147 21.9101 182.778 20.9505C183.408 19.9908 184.226 19.2848 185.21 18.8216C186.194 18.3583 187.3 18.0935 188.516 17.9832C189.732 17.8839 190.937 17.8288 192.132 17.8288H203.078V22.3844H192.85C192.242 22.3844 191.601 22.3955 190.915 22.4175C190.23 22.4396 189.6 22.5168 189.036 22.6492C188.461 22.7815 187.985 22.9691 187.609 23.2228C187.233 23.4765 187.034 23.8294 187.034 24.2817C187.034 25.12 187.455 25.6274 188.306 25.815C189.157 26.0025 190.429 26.1018 192.132 26.1018C193.447 26.1018 194.763 26.1679 196.09 26.2893C197.406 26.4216 198.6 26.6974 199.661 27.1276C200.723 27.5578 201.585 28.1865 202.249 29.0249C202.912 29.8632 203.233 30.9993 203.233 32.4333C203.233 34.1541 202.912 35.4888 202.282 36.4374C201.652 37.3861 200.833 38.092 199.849 38.5443C198.865 38.9965 197.748 39.2833 196.521 39.3826C195.283 39.5039 194.078 39.5481 192.917 39.5481Z" fill="white"/>
<path d="M217.098 17.7075C218.259 17.7075 219.475 17.8729 220.725 18.2038C221.974 18.5348 223.124 19.0201 224.163 19.6599C225.203 20.2996 226.076 21.1159 226.784 22.0866C227.492 23.0573 227.901 24.1935 228 25.484V39.5591H222.826V32.9628H213.206V27.8005H222.826V26.554C222.77 25.8701 222.56 25.2634 222.184 24.734C221.808 24.2045 221.333 23.7522 220.78 23.3882C220.227 23.0242 219.608 22.7484 218.934 22.5499C218.259 22.3624 217.618 22.2631 217.01 22.2631C215.639 22.2631 214.433 22.583 213.383 23.2117C212.333 23.8405 211.614 24.767 211.238 25.9804V39.5591H206.063V25.4399C206.163 24.2045 206.55 23.1014 207.224 22.1418C207.899 21.1821 208.75 20.3769 209.767 19.715C210.796 19.0532 211.946 18.5568 213.228 18.2149C214.522 17.8729 215.804 17.7075 217.098 17.7075Z" fill="white"/>
</svg>
