<svg width="49" height="48" viewBox="0 0 49 48" fill="none" xmlns="http://www.w3.org/2000/svg">
<path d="M19.3438 9.71213C18.0392 9.71213 16.7656 9.84615 15.5333 10.0988C14.3026 10.3497 13.1167 10.7229 11.9858 11.2024C11.8758 11.2418 11.7749 11.3032 11.6895 11.3828C11.604 11.4625 11.5356 11.5589 11.4886 11.6659C11.4416 11.7728 11.417 11.8883 11.4161 12.0051C11.4152 12.122 11.4382 12.2378 11.4836 12.3454C11.529 12.4531 11.5959 12.5503 11.6802 12.6312C11.7645 12.7121 11.8644 12.775 11.9738 12.816C12.0832 12.857 12.1999 12.8753 12.3166 12.8697C12.4333 12.8641 12.5477 12.8348 12.6526 12.7835C14.7689 11.8858 17.045 11.4257 19.3438 11.4309C19.6548 11.4309 19.9436 11.4309 20.2066 11.455C20.2123 11.4551 20.218 11.4551 20.2237 11.455C21.0926 11.4979 21.9568 11.6077 22.8087 11.7834C23.0889 11.8401 23.3639 11.9036 23.6372 11.9741C23.6383 11.9741 23.6395 11.9741 23.6406 11.9741C24.1851 12.1171 24.723 12.284 25.2528 12.4743C26.2991 12.8534 27.3045 13.337 28.2537 13.9179C28.4909 14.0623 28.723 14.2135 28.9516 14.3682C29.0449 14.4353 29.1507 14.4831 29.2628 14.5086C29.3748 14.534 29.4909 14.5367 29.604 14.5165C29.7171 14.4964 29.8251 14.4537 29.9214 14.3911C30.0178 14.3284 30.1006 14.2471 30.165 14.1519C30.2294 14.0567 30.274 13.9495 30.2963 13.8368C30.3185 13.724 30.3179 13.6081 30.2945 13.4956C30.2711 13.3831 30.2254 13.2763 30.1601 13.1817C30.0947 13.0872 30.011 13.0067 29.9141 12.9451C29.41 12.6044 28.8903 12.2872 28.3569 11.9946C27.2754 11.4098 26.1405 10.9298 24.9675 10.5612C24.9664 10.5612 24.9652 10.5612 24.964 10.5612C24.6719 10.4718 24.3745 10.3843 24.0703 10.3069H24.0669C23.1513 10.0691 22.2187 9.90238 21.2773 9.80843C20.9657 9.77677 20.6534 9.75272 20.3406 9.73626H20.3217C19.978 9.71047 19.6497 9.70877 19.3438 9.70877V9.71213ZM9.22889 12.794C9.06544 12.8012 8.90745 12.8548 8.77345 12.9486C7.94845 13.5055 7.17157 14.1243 6.44625 14.8014C6.27942 14.9569 6.18114 15.1721 6.17308 15.4C6.16503 15.6279 6.24785 15.8498 6.4033 16.0167C6.55874 16.1835 6.7741 16.2816 7.00198 16.2896C7.22987 16.2977 7.45162 16.2149 7.61845 16.0595C8.27673 15.4441 8.98657 14.8788 9.73594 14.3718C9.89347 14.2687 10.0128 14.1168 10.0756 13.9393C10.1385 13.7619 10.1413 13.5689 10.0838 13.3896C10.0262 13.2104 9.9113 13.055 9.75687 12.9474C9.60244 12.8398 9.41695 12.786 9.22889 12.794ZM5.29299 16.4084C5.16741 16.412 5.04416 16.4432 4.93191 16.4996C4.81966 16.5561 4.72111 16.6364 4.64327 16.735C2.74319 19.089 1.43269 21.8627 0.820767 24.8253C0.568111 26.0576 0.4375 27.3346 0.4375 28.6391C0.4375 39.0788 8.91094 47.5626 19.3438 47.5626C29.7766 47.5626 38.25 39.0788 38.25 28.6391C38.2559 25.1782 37.308 21.7824 35.5103 18.8249C35.4559 18.7209 35.3807 18.629 35.2893 18.5551C35.198 18.4812 35.0925 18.427 34.9794 18.3955C34.8662 18.364 34.7478 18.3559 34.6314 18.372C34.515 18.388 34.4032 18.4279 34.3028 18.4888C34.2024 18.5498 34.1155 18.6307 34.0476 18.7265C33.9797 18.8224 33.9321 18.9311 33.9079 19.0461C33.8837 19.161 33.8833 19.2797 33.9067 19.3948C33.9301 19.5099 33.977 19.6191 34.0442 19.7154C34.3315 20.1903 34.5953 20.6789 34.8348 21.1796C34.9552 21.4306 35.0737 21.6832 35.182 21.941C36.0817 24.0584 36.5407 26.3367 36.5312 28.6373C36.5312 38.1505 28.8467 45.842 19.3438 45.842C9.8425 45.842 2.15625 38.1505 2.15625 28.6373C2.15623 26.3377 2.61492 24.0612 3.50548 21.941C4.13308 20.4568 4.96624 19.0684 5.98048 17.8162C6.08608 17.6889 6.1527 17.5337 6.17235 17.3695C6.192 17.2053 6.16384 17.0389 6.09126 16.8903C6.01867 16.7417 5.90472 16.6172 5.76312 16.5317C5.62152 16.4463 5.45831 16.4034 5.29299 16.4084Z" fill="#2B4255"/>
<path fill-rule="evenodd" clip-rule="evenodd" d="M3.4624 27.7798V29.4985H6.34989V27.7798H3.4624ZM32.3374 27.7798V29.4985H35.2249V27.7798H32.3374ZM18.4843 12.7407V15.6298H20.203V12.7407H18.4843ZM18.4843 41.6431V44.534H20.203V41.6431H18.4843Z" fill="#2B4255"/>
<path fill-rule="evenodd" clip-rule="evenodd" d="M3.4624 27.7798V29.4985H6.34989V27.7798H3.4624ZM32.3374 27.7798V29.4985H35.2249V27.7798H32.3374ZM18.4843 12.7407V15.6298H20.203V12.7407H18.4843ZM18.4843 41.6431V44.534H20.203V41.6431H18.4843ZM12.1455 14.4423L10.6588 15.2981L12.1025 17.8023L13.5893 16.943L12.1455 14.4423ZM26.583 39.4707L25.098 40.3301L26.5417 42.8342L28.0285 41.9748L26.5848 39.4707H26.583ZM32.6674 19.9439L31.1721 20.8068L32.0314 22.2969L33.5268 21.4341L32.6674 19.9439ZM7.6613 34.3952L5.16049 35.8423L6.01986 37.329L8.52067 35.8853L7.6613 34.3952ZM6.01986 19.9439L5.16049 21.4341L7.6613 22.8778L8.52067 21.3911L6.01986 19.9439ZM31.026 34.3952L30.1666 35.8853L32.6674 37.329L33.5268 35.8423L31.026 34.3952ZM26.5401 14.4404L25.0963 16.943L26.5848 17.8023L28.0285 15.2981L26.5401 14.4423V14.4404ZM12.1025 39.4707L10.6588 41.9748L12.1472 42.8342L13.591 40.3301L12.1025 39.4707ZM18.4843 6.95882V9.84977H20.203V6.95882H18.4843Z" fill="#2B4255"/>
<path d="M17.1779 3.93213C16.9499 3.93213 16.7314 4.02253 16.5702 4.18369C16.409 4.34485 16.3185 4.56358 16.3185 4.7915V7.68056C16.3185 7.90849 16.409 8.12722 16.5702 8.28838C16.7314 8.44954 16.9499 8.53994 17.1779 8.53994H21.5091C21.7371 8.53994 21.9556 8.44954 22.1168 8.28838C22.278 8.12722 22.3685 7.90849 22.3685 7.68056V4.7915C22.3685 4.56358 22.278 4.34485 22.1168 4.18369C21.9556 4.02253 21.7371 3.93213 21.5091 3.93213H17.1779ZM18.0372 5.65088H20.6498V6.82119H18.0372V5.65088ZM9.52946 6.82476C9.3928 6.83111 9.2596 6.86986 9.141 6.93805L6.64024 8.38195C6.54257 8.43867 6.45703 8.51393 6.38852 8.60372C6.32002 8.69352 6.26987 8.79603 6.24097 8.90522C6.21208 9.0144 6.20503 9.12814 6.22015 9.24007C6.23528 9.352 6.27231 9.45991 6.32915 9.55751L7.41024 11.4326C7.5242 11.6302 7.71198 11.7746 7.93229 11.8337C8.1526 11.8929 8.3874 11.8621 8.58501 11.7481C8.78261 11.6342 8.92685 11.4462 8.986 11.2259C9.04515 11.0056 9.01436 10.7708 8.9004 10.5732L8.24554 9.43897L9.25618 8.85444L9.90926 9.9872C9.96547 10.0852 10.0404 10.171 10.1298 10.24C10.2192 10.309 10.3214 10.3599 10.4304 10.3894C10.5394 10.4189 10.6532 10.4265 10.7652 10.4121C10.8772 10.3976 10.9852 10.3615 11.0832 10.3053C11.1812 10.2491 11.2671 10.174 11.3361 10.0845C11.4051 9.99514 11.4558 9.89311 11.4853 9.7841C11.5148 9.6751 11.5226 9.56126 11.5082 9.44925C11.4937 9.33724 11.4574 9.22914 11.4012 9.13118L10.3183 7.25088C10.2387 7.11382 10.1227 7.00153 9.98317 6.9263C9.84364 6.85108 9.686 6.81597 9.52773 6.82476H9.52946ZM29.1352 6.82119C28.9809 6.81751 28.8284 6.85552 28.6938 6.93113C28.5592 7.00674 28.4475 7.11716 28.3704 7.25088L27.2876 9.13118C27.2252 9.22913 27.1833 9.33886 27.1645 9.45345C27.1456 9.56803 27.1502 9.68518 27.1779 9.79795C27.2056 9.91072 27.2559 10.0167 27.3257 10.1095C27.3955 10.2023 27.4834 10.2799 27.584 10.3378C27.6847 10.3957 27.796 10.4326 27.9113 10.4463C28.0267 10.4599 28.1436 10.4501 28.255 10.4173C28.3664 10.3845 28.47 10.3295 28.5595 10.2555C28.6491 10.1816 28.7227 10.0904 28.776 9.9872L29.4308 8.85633L30.4415 9.44065L29.7883 10.5751C29.6762 10.7724 29.6466 11.0059 29.706 11.2249C29.7655 11.4439 29.9092 11.6305 30.1057 11.7439C30.3023 11.8574 30.5357 11.8886 30.7551 11.8306C30.9745 11.7726 31.162 11.6302 31.2768 11.4345L32.3596 9.55751C32.4164 9.45981 32.4533 9.35186 32.4683 9.23986C32.4833 9.12786 32.4761 9.01399 32.447 8.9048C32.418 8.7956 32.3676 8.69324 32.299 8.60351C32.2303 8.51378 32.1446 8.43853 32.0468 8.38195L29.546 6.93805C29.4209 6.86575 29.2796 6.82633 29.1352 6.82308V6.82119ZM19.3435 25.6106C17.6832 25.6106 16.3185 26.9771 16.3185 28.6392C16.3185 30.2995 17.6832 31.6642 19.3435 31.6642C21.0038 31.6642 22.3685 30.2995 22.3685 28.6392C22.3685 26.9771 21.0038 25.6106 19.3435 25.6106ZM19.3435 27.3293C20.074 27.3293 20.6498 27.9053 20.6498 28.6392C20.6498 29.3713 20.074 29.9454 19.3435 29.9454C19.1715 29.9473 19.0007 29.9145 18.8414 29.8495C18.6821 29.7846 18.5374 29.6886 18.4157 29.5669C18.2941 29.4453 18.198 29.3003 18.133 29.141C18.068 28.9817 18.0354 28.8112 18.0372 28.6392C18.0372 27.9053 18.613 27.3293 19.3435 27.3293Z" fill="#2B4255"/>
<path d="M22.6198 19.9093C22.4416 19.912 22.2686 19.97 22.1248 20.0753C21.981 20.1806 21.8735 20.3281 21.8171 20.4972L19.3868 27.7883C19.336 27.9398 19.3285 28.1024 19.3651 28.258C19.4017 28.4136 19.4809 28.556 19.594 28.6691C19.707 28.7821 19.8493 28.8614 20.0049 28.898C20.1605 28.9345 20.3232 28.9269 20.4748 28.8761L27.7657 26.4459C27.9048 26.3997 28.0298 26.3186 28.1288 26.2105C28.2277 26.1024 28.2974 25.9709 28.3311 25.8282C28.3649 25.6856 28.3616 25.5368 28.3216 25.3958C28.2816 25.2548 28.2062 25.1264 28.1026 25.0228L23.242 20.1622C23.1606 20.0804 23.0635 20.0159 22.9566 19.9725C22.8497 19.9291 22.7352 19.9075 22.6198 19.9093ZM23.01 22.3603L25.9026 25.2548L21.5628 26.7019L23.01 22.3603Z" fill="#F05542"/>
<path d="M39.4924 3.03843C39.2691 3.04162 39.0559 3.13162 38.8978 3.28936L22.0265 20.1624C21.8654 20.3235 21.7749 20.5421 21.7749 20.77C21.7749 20.9978 21.8654 21.2162 22.0265 21.3774L26.8871 26.238C27.0483 26.3991 27.2668 26.4898 27.4947 26.4898C27.7226 26.4898 27.9411 26.3991 28.1023 26.238L44.9735 9.36688C45.1346 9.20572 45.2251 8.98715 45.2251 8.75927C45.2251 8.53139 45.1346 8.31282 44.9735 8.15167L40.1129 3.29104C40.0317 3.20952 39.9349 3.14519 39.8283 3.10179C39.7217 3.05839 39.6075 3.03685 39.4924 3.03843ZM39.5062 5.1128L43.15 8.75843L27.4939 24.4162L23.8501 20.7689L39.5062 5.1128Z" fill="#F05542"/>
<path d="M43.2551 0.350075C42.3613 0.367262 41.4676 0.71979 40.7887 1.3987L38.8981 3.28928C38.737 3.45044 38.6465 3.66901 38.6465 3.89688C38.6465 4.12476 38.737 4.34333 38.8981 4.50449L43.7587 9.3668C43.9198 9.52791 44.1384 9.61836 44.3663 9.61836C44.5942 9.61836 44.8127 9.52791 44.9738 9.3668L46.8645 7.47601C47.827 6.51351 48.2876 5.55628 48.1707 4.63331C48.0521 3.70862 47.466 3.0847 46.9315 2.54845L45.7163 1.33324C45.7152 1.33323 45.7141 1.33323 45.7129 1.33324C45.3906 1.01221 45.0067 0.759669 44.5844 0.590725C44.162 0.42178 43.7099 0.339884 43.2551 0.350075ZM43.2723 2.05519C43.7192 2.038 44.1626 2.21501 44.4978 2.54845L45.7163 3.76366C46.1907 4.23803 46.4331 4.60241 46.4657 4.84648C46.4967 5.09398 46.4227 5.48757 45.6493 6.261L44.3671 7.54314L40.7216 3.89772L42.0038 2.61559C42.3699 2.24949 42.8237 2.0655 43.2723 2.05519Z" fill="#F05542"/>
<path fill-rule="evenodd" clip-rule="evenodd" d="M41.2786 5.77109L24.3867 22.663L25.6019 23.8782L42.4938 6.9863L41.2786 5.77109Z" fill="#F05542"/>
</svg>
