<svg width="35" height="36" viewBox="0 0 35 36" fill="none" xmlns="http://www.w3.org/2000/svg">
<path d="M0.133188 18.372C0.133188 28.02 7.90919 35.796 17.5572 35.796C27.2052 35.796 34.9812 28.02 34.9812 18.372C34.9812 8.724 27.2052 0.947999 17.5572 1.02C7.90919 1.02 0.133188 8.724 0.133188 18.372ZM6.75719 18.3C6.75719 17.472 6.75719 16.644 6.79319 15.888C6.86519 15.06 6.86519 14.232 6.90119 13.512C7.00919 11.82 7.62119 10.488 8.70119 9.408C9.70919 8.364 11.0772 7.788 12.7332 7.716C13.5252 7.716 14.3172 7.644 15.1452 7.644H19.8972C20.7252 7.644 21.5172 7.68 22.3812 7.716C24.1092 7.788 25.4772 8.364 26.4492 9.444C27.6012 10.524 28.2132 11.928 28.2492 13.584C28.2852 15.132 28.3572 16.752 28.3572 18.372C28.3572 19.992 28.3212 21.612 28.2492 23.16C28.1772 24.852 27.6012 26.22 26.4492 27.3C25.4052 28.452 24.0372 28.956 22.3812 29.064C21.5892 29.1 20.7612 29.1 19.9692 29.136C19.1412 29.208 18.3492 29.136 17.5932 29.136H15.2172C14.4252 29.136 13.5972 29.1 12.8412 29.064C11.1852 28.956 9.81719 28.452 8.70119 27.3C7.62119 26.22 7.00919 24.852 6.90119 23.16C6.86519 22.368 6.79319 21.576 6.79319 20.748C6.79319 19.92 6.75719 19.128 6.75719 18.3ZM8.70119 18.336C8.70119 20.064 8.73719 21.72 8.84519 23.052C8.91719 24.204 9.27719 25.176 10.0692 25.932C10.8252 26.652 11.7972 27.048 12.8772 27.12C13.5972 27.192 14.3892 27.228 15.2172 27.228C15.9732 27.228 16.7652 27.228 17.5932 27.228C18.4212 27.228 19.2132 27.228 19.9692 27.228C20.7612 27.228 21.5172 27.192 22.2372 27.12C23.4612 27.012 24.3972 26.652 25.1172 25.932C25.9092 25.176 26.2692 24.312 26.3052 23.124C26.3412 21.612 26.4132 20.028 26.4132 18.372C26.4132 16.644 26.3772 15.096 26.3052 13.692C26.1972 12.504 25.8732 11.568 25.1172 10.848C24.3972 10.092 23.4612 9.732 22.2372 9.624C21.5172 9.588 20.7612 9.588 19.9332 9.588C19.1412 9.588 18.3492 9.552 17.5212 9.552C16.6932 9.552 15.9012 9.552 15.0732 9.588C14.3172 9.66 13.5252 9.588 12.8412 9.624C11.6532 9.768 10.7172 10.092 10.0332 10.776C9.31319 11.64 8.91719 12.468 8.84519 13.584C8.73719 15.024 8.70119 16.572 8.70119 18.336ZM12.0492 18.444C12.0492 16.896 12.6612 15.564 13.7052 14.52C14.8212 13.404 16.0452 12.864 17.5572 12.864C19.0692 12.864 20.2932 13.404 21.4092 14.52C22.4532 15.564 23.0652 16.896 23.0652 18.444C23.0652 19.92 22.4532 21.252 21.4092 22.296C20.3292 23.376 19.1412 23.952 17.5572 23.952C15.9732 23.952 14.7132 23.376 13.7052 22.296C12.6612 21.144 12.0492 19.92 12.0492 18.444ZM14.0292 18.444C14.0292 19.416 14.3532 20.244 15.0372 20.892C15.7572 21.684 16.6212 21.972 17.5572 21.972C18.4932 21.972 19.3572 21.684 20.0772 20.892C20.7612 20.244 21.0852 19.416 21.0852 18.444C21.0852 17.4 20.7612 16.572 20.0772 15.852C19.3572 15.168 18.4932 14.808 17.5572 14.808C16.6212 14.808 15.7572 15.168 15.0372 15.852C14.3532 16.572 14.0292 17.4 14.0292 18.444ZM21.8412 12.864C21.8412 11.964 22.2732 11.604 23.1012 11.604C24.0012 11.604 24.3972 11.964 24.3972 12.864C24.3972 13.692 24.0012 14.124 23.1012 14.124C22.2732 14.124 21.8412 13.692 21.8412 12.864Z" fill="white"/>
</svg>
