<svg id="Layer_1" data-name="Layer 1" xmlns="http://www.w3.org/2000/svg" xmlns:xlink="http://www.w3.org/1999/xlink" viewBox="0 0 532.98 532.47"><defs><style>.cls-1{fill:url(#linear-gradient);}.cls-2{fill:url(#linear-gradient-2);}.cls-3{fill:url(#linear-gradient-3);}.cls-4{fill:url(#linear-gradient-4);}</style><linearGradient id="linear-gradient" x1="895.16" y1="1150.4" x2="1138.27" y2="907.29" gradientUnits="userSpaceOnUse"><stop offset="0" stop-color="#99c18b"/><stop offset="0.04" stop-color="#90bc81"/><stop offset="0.19" stop-color="#78ad66"/><stop offset="0.34" stop-color="#65a150"/><stop offset="0.51" stop-color="#579941"/><stop offset="0.71" stop-color="#4f9438"/><stop offset="1" stop-color="#4d9335"/></linearGradient><linearGradient id="linear-gradient-2" x1="703.48" y1="810.86" x2="998.14" y2="946.38" gradientUnits="userSpaceOnUse"><stop offset="0" stop-color="#de7daf"/><stop offset="0.13" stop-color="#d865a1"/><stop offset="0.3" stop-color="#d25094"/><stop offset="0.48" stop-color="#ce418b"/><stop offset="0.69" stop-color="#cc3886"/><stop offset="1" stop-color="#cb3584"/></linearGradient><linearGradient id="linear-gradient-3" x1="854.95" y1="788.35" x2="1197.63" y2="945.96" gradientUnits="userSpaceOnUse"><stop offset="0" stop-color="#f4aa0b"/><stop offset="1" stop-color="#fbd488"/></linearGradient><linearGradient id="linear-gradient-4" x1="753.27" y1="1152.61" x2="996.38" y2="909.5" gradientUnits="userSpaceOnUse"><stop offset="0" stop-color="#9dd1f0"/><stop offset="0.19" stop-color="#94ccef"/><stop offset="0.52" stop-color="#8bc7ed"/><stop offset="1" stop-color="#88c6ed"/></linearGradient></defs><path class="cls-1" d="M957.41,1190.85A118.79,118.79,0,0,1,945.79,1201a115.75,115.75,0,0,0,152-10.17l80.18-80.18A115.7,115.7,0,0,0,1178,947l-80.18-80.18a115.72,115.72,0,0,0-152-10.18,117.59,117.59,0,0,1,11.62,10.18L1037.59,947a115.74,115.74,0,0,1,0,163.65Z" transform="translate(-678.92 -693.76)"/><path class="cls-2" d="M933.42,1051.67A115.24,115.24,0,0,0,945,1061.84a115.76,115.76,0,0,1-152-10.17l-80.18-80.18a115.7,115.7,0,0,1,0-163.65L793,727.66a115.73,115.73,0,0,1,152-10.18,115.35,115.35,0,0,0-11.62,10.18l-80.19,80.18a115.74,115.74,0,0,0,0,163.65Z" transform="translate(-678.92 -693.76)"/><path class="cls-3" d="M853.24,949.76a115.24,115.24,0,0,0-10.17,11.62,115.74,115.74,0,0,1,10.17-152l80.18-80.19a115.72,115.72,0,0,1,163.65,0l80.18,80.19a115.72,115.72,0,0,1,10.18,152,116.62,116.62,0,0,0-10.18-11.62l-80.18-80.18a115.72,115.72,0,0,0-163.65,0Z" transform="translate(-678.92 -693.76)"/><path class="cls-4" d="M1036.83,971.75A118.91,118.91,0,0,0,1047,960.13a115.75,115.75,0,0,1-10.18,152l-80.18,80.18a115.7,115.7,0,0,1-163.65,0l-80.18-80.18a115.72,115.72,0,0,1-10.18-152,118.91,118.91,0,0,0,10.18,11.62L793,1051.93a115.74,115.74,0,0,0,163.65,0Z" transform="translate(-678.92 -693.76)"/></svg>