<svg width="228" height="58" viewBox="0 0 228 58" fill="none" xmlns="http://www.w3.org/2000/svg">
<path d="M30.0165 53.4576C29.6185 53.8437 29.2094 54.2077 28.7671 54.5496C33.7316 58.3221 40.7306 57.8588 45.1533 53.4576L53.7997 44.8427C58.6758 39.9892 58.6758 32.1134 53.8108 27.2489C53.8108 27.2489 53.8108 27.2489 53.7997 27.2378L45.1533 18.6119C40.7416 14.2107 33.7316 13.7364 28.7671 17.5199C29.2094 17.8618 29.6295 18.2258 30.0165 18.6119L38.6519 27.2378C43.5169 32.1023 43.5169 39.9782 38.6519 44.8317L30.0165 53.4576Z" fill="url(#paint0_linear_270_1334)"/>
<path d="M27.4403 38.489C27.8273 38.8861 28.2474 39.2501 28.6897 39.5811C23.7252 43.3535 16.7262 42.8902 12.3035 38.489L3.65704 29.8631C-1.21902 25.0096 -1.21902 17.1227 3.65704 12.2693L12.3035 3.64335C16.7152 -0.757864 23.7252 -1.23218 28.6897 2.55132C28.2474 2.89327 27.8273 3.25728 27.4403 3.64335L18.7938 12.2693C13.9288 17.1338 13.9288 25.0096 18.7938 29.8631L27.4403 38.489Z" fill="url(#paint1_linear_270_1334)"/>
<path d="M18.7937 27.5246C18.3957 27.9217 18.0308 28.3299 17.6991 28.7711C13.9177 23.8183 14.3821 16.836 18.7937 12.4237L27.4402 3.79779C32.3052 -1.06671 40.2108 -1.06671 45.0758 3.79779L53.7223 12.4237C58.1339 16.8249 58.6094 23.8183 54.8169 28.7711C54.4741 28.3299 54.1092 27.9107 53.7223 27.5246L45.0758 18.9097C40.1998 14.0452 32.3052 14.0452 27.4402 18.9097L18.7937 27.5246Z" fill="url(#paint2_linear_270_1334)"/>
<path d="M38.5854 29.8962C38.9724 29.4991 39.3483 29.091 39.68 28.6498C43.4615 33.6025 42.9971 40.5849 38.5854 44.9971L29.939 53.6231C25.074 58.4876 17.1683 58.4876 12.3033 53.6231L3.65689 44.9971C-0.754783 40.5959 -1.23023 33.6025 2.56226 28.6498C2.90503 29.091 3.2699 29.5102 3.65689 29.8962L12.3033 38.5222C17.1794 43.3867 25.074 43.3867 29.939 38.5222L38.5854 29.8962Z" fill="url(#paint3_linear_270_1334)"/>
<path d="M89.2035 17.7073C91.9677 17.7073 94.157 18.4463 95.7823 19.9023C96.5895 19.1743 97.5514 18.6228 98.6571 18.2478C99.7628 17.8837 100.935 17.6962 102.173 17.6962C103.467 17.6962 104.65 17.8617 105.733 18.2036C106.806 18.5456 107.746 19.042 108.531 19.6817C109.316 20.3215 109.946 21.1378 110.433 22.1085C110.919 23.0792 111.207 24.1933 111.306 25.4287V39.5368H106.132V25.9692C106.132 24.7558 105.822 23.8292 105.214 23.2005C104.606 22.5718 103.622 22.2519 102.251 22.2519C101.034 22.2519 100.094 22.6269 99.4421 23.366C98.7787 24.116 98.4139 25.1639 98.3365 26.5317V39.5368H93.1508V26.4656C93.0955 25.8809 92.996 25.3294 92.8302 24.811C92.6643 24.2925 92.4321 23.8403 92.1225 23.4652C91.8129 23.0902 91.437 22.7924 90.9616 22.5718C90.4972 22.3622 89.9333 22.2519 89.2699 22.2519C88.0536 22.2519 87.1138 22.6269 86.4614 23.366C85.798 24.116 85.4331 25.1639 85.3557 26.5317V39.5368H80.1812V25.4838C80.2807 24.1933 80.5903 23.0681 81.0989 22.0864C81.6075 21.1157 82.2598 20.2994 83.078 19.6597C83.8852 19.0199 84.814 18.5235 85.8533 18.2036C86.8926 17.8727 88.0094 17.7073 89.2035 17.7073Z" fill="#555555"/>
<path d="M122.241 39.5482V33.0291C121.18 32.8305 120.152 32.5217 119.179 32.1025C118.206 31.6833 117.332 31.1649 116.569 30.5251C115.806 29.8964 115.187 29.1573 114.712 28.33C114.225 27.4917 113.949 26.5651 113.871 25.5283V17.862H119.046V24.9878C119.422 26.2011 120.141 27.1277 121.191 27.7564C122.241 28.3852 123.458 28.7051 124.818 28.7051C125.426 28.7051 126.067 28.6058 126.741 28.4183C127.416 28.2308 128.024 27.955 128.588 27.5799C129.141 27.2159 129.616 26.7637 129.992 26.2342C130.368 25.7047 130.589 25.0981 130.633 24.4142V17.851H135.808V25.4731C135.731 26.532 135.443 27.4917 134.935 28.3521C134.426 29.2125 133.785 29.9626 133 30.5913C132.215 31.22 131.341 31.7385 130.379 32.1466C129.417 32.5547 128.422 32.8415 127.416 33.018V39.5371H122.241V39.5482Z" fill="#555555"/>
<path d="M149.541 17.8619H154.715V28.3299C156.164 30.2272 158.099 32.2458 160.531 34.3968C161.493 33.6136 162.455 32.7311 163.417 31.7384C164.379 30.7567 165.341 29.6095 166.303 28.3299V17.8619H171.478V29.9183C170.162 31.5398 168.702 33.2055 167.11 34.9262C165.518 36.647 163.76 38.1913 161.858 39.5591H159.116C157.469 38.1913 155.788 36.7132 154.063 35.1027C152.338 33.4922 150.834 31.7715 149.541 29.9294V17.8619Z" fill="#555555"/>
<path d="M174.064 39.548V17.8619H179.239V39.5591H174.064V39.548Z" fill="#555555"/>
<path d="M192.917 39.548H181.97V34.9924H192.198C192.806 34.9924 193.447 34.9813 194.133 34.9593C194.818 34.9372 195.449 34.86 196.013 34.7276C196.588 34.6063 197.063 34.4077 197.439 34.154C197.815 33.9003 198.014 33.5473 198.014 33.0951C198.014 32.2899 197.583 31.7824 196.72 31.5729C195.858 31.3743 194.575 31.264 192.883 31.264C191.59 31.264 190.285 31.1978 188.969 31.0765C187.654 30.9552 186.459 30.6684 185.398 30.2382C184.337 29.808 183.474 29.1792 182.811 28.3409C182.147 27.5026 181.827 26.3664 181.827 24.9324C181.827 23.2337 182.147 21.9101 182.778 20.9504C183.408 19.9907 184.226 19.2848 185.21 18.8215C186.194 18.3582 187.3 18.0935 188.516 17.9832C189.732 17.8839 190.937 17.8287 192.132 17.8287H203.078V22.3844H192.85C192.242 22.3844 191.601 22.3954 190.915 22.4175C190.23 22.4395 189.6 22.5167 189.036 22.6491C188.461 22.7815 187.985 22.969 187.609 23.2227C187.233 23.4764 187.034 23.8294 187.034 24.2816C187.034 25.12 187.455 25.6274 188.306 25.8149C189.157 26.0024 190.429 26.1017 192.132 26.1017C193.447 26.1017 194.763 26.1679 196.09 26.2892C197.406 26.4216 198.6 26.6973 199.661 27.1275C200.723 27.5577 201.585 28.1865 202.249 29.0248C202.912 29.8631 203.233 30.9993 203.233 32.4333C203.233 34.154 202.912 35.4887 202.282 36.4374C201.652 37.386 200.833 38.092 199.849 38.5442C198.865 38.9965 197.748 39.2833 196.521 39.3825C195.283 39.5039 194.078 39.548 192.917 39.548Z" fill="#555555"/>
<path d="M217.098 17.7074C218.259 17.7074 219.475 17.8729 220.725 18.2038C221.974 18.5347 223.124 19.02 224.163 19.6598C225.203 20.2996 226.076 21.1159 226.784 22.0865C227.491 23.0572 227.9 24.1934 228 25.484V39.559H222.825V32.9627H213.206V27.8004H222.825V26.5539C222.77 25.87 222.56 25.2634 222.184 24.7339C221.808 24.2044 221.333 23.7522 220.78 23.3882C220.227 23.0241 219.608 22.7484 218.933 22.5498C218.259 22.3623 217.618 22.263 217.009 22.263C215.638 22.263 214.433 22.5829 213.383 23.2117C212.332 23.8404 211.614 24.767 211.238 25.9804V39.559H206.063V25.4399C206.163 24.2044 206.55 23.1014 207.224 22.1417C207.899 21.182 208.75 20.3768 209.767 19.715C210.796 19.0531 211.945 18.5568 213.228 18.2148C214.522 17.8729 215.804 17.7074 217.098 17.7074Z" fill="#555555"/>
<defs>
<linearGradient id="paint0_linear_270_1334" x1="23.3135" y1="49.1008" x2="49.454" y2="22.8981" gradientUnits="userSpaceOnUse">
<stop stop-color="#99C18B"/>
<stop offset="0.04" stop-color="#90BC81"/>
<stop offset="0.19" stop-color="#78AD66"/>
<stop offset="0.34" stop-color="#65A150"/>
<stop offset="0.51" stop-color="#579941"/>
<stop offset="0.71" stop-color="#4F9438"/>
<stop offset="1" stop-color="#4D9335"/>
</linearGradient>
<linearGradient id="paint1_linear_270_1334" x1="2.65084" y1="12.5928" x2="34.3812" y2="27.2209" gradientUnits="userSpaceOnUse">
<stop stop-color="#DE7DAF"/>
<stop offset="0.13" stop-color="#D865A1"/>
<stop offset="0.3" stop-color="#D25094"/>
<stop offset="0.48" stop-color="#CE418B"/>
<stop offset="0.69" stop-color="#CC3886"/>
<stop offset="1" stop-color="#CB3584"/>
</linearGradient>
<linearGradient id="paint2_linear_270_1334" x1="18.9801" y1="10.1753" x2="55.8804" y2="27.1874" gradientUnits="userSpaceOnUse">
<stop stop-color="#F4AA0B"/>
<stop offset="1" stop-color="#FBD488"/>
</linearGradient>
<linearGradient id="paint3_linear_270_1334" x1="8.01722" y1="49.338" x2="34.1567" y2="23.1364" gradientUnits="userSpaceOnUse">
<stop stop-color="#9DD1F0"/>
<stop offset="0.19" stop-color="#94CCEF"/>
<stop offset="0.52" stop-color="#8BC7ED"/>
<stop offset="1" stop-color="#88C6ED"/>
</linearGradient>
</defs>
</svg>
