<svg id="Layer_1" data-name="Layer 1" xmlns="http://www.w3.org/2000/svg" xmlns:xlink="http://www.w3.org/1999/xlink" viewBox="0 0 928.49 832.22"><defs><style>.cls-1{fill:url(#linear-gradient);}.cls-2{fill:url(#linear-gradient-2);}.cls-3{fill:url(#linear-gradient-3);}.cls-4{fill:url(#linear-gradient-4);}.cls-5{font-size:234.71px;fill:#555;font-family:BarcadeNoBar, Barcade No Bar;}</style><linearGradient id="linear-gradient" x1="895.16" y1="1001.41" x2="1138.27" y2="758.3" gradientUnits="userSpaceOnUse"><stop offset="0" stop-color="#99c18b"/><stop offset="0.04" stop-color="#90bc81"/><stop offset="0.19" stop-color="#78ad66"/><stop offset="0.34" stop-color="#65a150"/><stop offset="0.51" stop-color="#579941"/><stop offset="0.71" stop-color="#4f9438"/><stop offset="1" stop-color="#4d9335"/></linearGradient><linearGradient id="linear-gradient-2" x1="703.48" y1="661.87" x2="998.14" y2="797.39" gradientUnits="userSpaceOnUse"><stop offset="0" stop-color="#de7daf"/><stop offset="0.13" stop-color="#d865a1"/><stop offset="0.3" stop-color="#d25094"/><stop offset="0.48" stop-color="#ce418b"/><stop offset="0.69" stop-color="#cc3886"/><stop offset="1" stop-color="#cb3584"/></linearGradient><linearGradient id="linear-gradient-3" x1="854.95" y1="639.36" x2="1197.63" y2="796.97" gradientUnits="userSpaceOnUse"><stop offset="0" stop-color="#f4aa0b"/><stop offset="1" stop-color="#fbd488"/></linearGradient><linearGradient id="linear-gradient-4" x1="753.27" y1="1003.62" x2="996.38" y2="760.51" gradientUnits="userSpaceOnUse"><stop offset="0" stop-color="#9dd1f0"/><stop offset="0.19" stop-color="#94ccef"/><stop offset="0.52" stop-color="#8bc7ed"/><stop offset="1" stop-color="#88c6ed"/></linearGradient></defs><path class="cls-1" d="M957.41,1041.86A117.59,117.59,0,0,1,945.79,1052a115.75,115.75,0,0,0,152-10.18L1178,961.68A115.7,115.7,0,0,0,1178,798l-80.18-80.18a115.72,115.72,0,0,0-152-10.17,118.79,118.79,0,0,1,11.62,10.17L1037.59,798a115.74,115.74,0,0,1,0,163.65Z" transform="translate(-481.16 -544.78)"/><path class="cls-2" d="M933.42,902.69A116.51,116.51,0,0,0,945,912.86a115.78,115.78,0,0,1-152-10.17L712.82,822.5a115.7,115.7,0,0,1,0-163.65L793,578.67A115.73,115.73,0,0,1,945,568.5a116.51,116.51,0,0,0-11.62,10.17l-80.19,80.18a115.74,115.74,0,0,0,0,163.65Z" transform="translate(-481.16 -544.78)"/><path class="cls-3" d="M853.24,800.77a116.35,116.35,0,0,0-10.17,11.62,115.74,115.74,0,0,1,10.17-152l80.18-80.18a115.7,115.7,0,0,1,163.65,0l80.18,80.18a115.72,115.72,0,0,1,10.18,152,117.75,117.75,0,0,0-10.18-11.62l-80.18-80.18a115.72,115.72,0,0,0-163.65,0Z" transform="translate(-481.16 -544.78)"/><path class="cls-4" d="M1036.83,822.76A117.75,117.75,0,0,0,1047,811.14a115.75,115.75,0,0,1-10.18,152l-80.18,80.18a115.7,115.7,0,0,1-163.65,0l-80.18-80.18a115.72,115.72,0,0,1-10.18-152,117.75,117.75,0,0,0,10.18,11.62L793,902.94a115.72,115.72,0,0,0,163.65,0Z" transform="translate(-481.16 -544.78)"/><text class="cls-5" transform="translate(0 791.62)">my visa</text></svg>