<svg width="59" height="59" viewBox="0 0 59 59" fill="none" xmlns="http://www.w3.org/2000/svg">
<g clip-path="url(#clip0_107_1460)">
<path d="M15.6702 14.4384C12.493 14.4423 9.44703 15.7061 7.20042 17.9527C4.9538 20.1994 3.68994 23.2453 3.68604 26.4225C3.68604 33.0304 9.0623 38.4066 15.6702 38.4066C22.2762 38.4066 27.6543 33.0304 27.6543 26.4225C27.6543 19.8146 22.2762 14.4384 15.6702 14.4384ZM14.7483 16.4701V19.9695H8.00954C8.84793 18.9722 9.87456 18.1499 11.0308 17.5495C12.1871 16.949 13.4503 16.5823 14.7483 16.4701ZM16.592 16.4701C19.2129 16.6971 21.6362 17.9558 23.329 19.9695H16.592V16.4701ZM6.76872 21.8132H14.7483V25.5006H5.71596C5.84133 24.1732 6.18243 22.9416 6.76689 21.8132H6.76872ZM16.592 21.8132H24.5716C25.1579 22.9416 25.4972 24.1732 25.6225 25.5006H16.592V21.8132ZM5.71596 27.3443H14.7483V31.0318H6.76872C6.18228 29.8825 5.82534 28.6301 5.71782 27.3443H5.71596ZM16.592 27.3443H25.6225C25.5151 28.6301 25.1581 29.8826 24.5716 31.0318H16.592V27.3443ZM8.00954 32.8755H14.7483V36.3767C13.4502 36.2643 12.1869 35.8973 11.0306 35.2965C9.87433 34.6958 8.84777 33.8731 8.00954 32.8755ZM16.592 32.8755H23.329C22.491 33.8729 21.4647 34.6954 20.3087 35.2962C19.1528 35.8969 17.8899 36.2641 16.592 36.3767V32.8755Z" fill="#F05542"/>
<path fill-rule="evenodd" clip-rule="evenodd" d="M11.0093 15.7787C8.13862 22.8494 7.66293 29.6435 10.7972 36.9925L12.4935 36.2679C9.54352 29.3485 9.9731 23.2384 12.7202 16.4738L11.0093 15.7787ZM20.2463 15.7787L18.5353 16.4738C21.2825 23.2384 21.7139 29.3485 18.7621 36.2679L20.4583 36.9925C23.5926 29.6416 23.1169 22.8494 20.2463 15.7787Z" fill="#F05542"/>
<path d="M3.53711 42.6656V45.7446H4.44974V44.9131H4.93278C5.72742 44.9131 6.18466 44.4909 6.18466 43.7589C6.18466 43.0602 5.72742 42.6656 4.93278 42.6656H3.53711ZM4.44974 43.3662H4.88853C5.1614 43.3662 5.31997 43.5174 5.31997 43.7847C5.31997 44.0613 5.1614 44.2088 4.88853 44.2088H4.44974V43.3681V43.3662ZM8.36209 45.2505L8.54278 45.7428H9.51626L8.24778 42.6638H7.3075L5.99477 45.7428H6.93505L7.11943 45.2505H8.36209ZM8.12057 44.5831H7.37386L7.75183 43.5782L8.12057 44.5831ZM10.9931 42.625C10.2242 42.625 9.7209 43.003 9.7209 43.5967C9.7209 44.6808 11.3268 44.3858 11.3268 44.8504C11.3268 44.9924 11.2033 45.0587 11.0115 45.0587C10.6944 45.0587 10.1818 44.8559 9.86472 44.5886L9.52178 45.2818C9.90896 45.5842 10.4805 45.7686 11.0023 45.7686C11.6918 45.7686 12.2708 45.457 12.2708 44.8025C12.2708 43.6926 10.663 43.9599 10.663 43.5082C10.663 43.3939 10.7645 43.3423 10.9193 43.3423C11.1775 43.3423 11.6255 43.5027 11.9408 43.6833L12.28 42.9827C11.8918 42.748 11.4467 42.6243 10.9931 42.625ZM13.8656 42.625C13.0986 42.625 12.5934 43.003 12.5934 43.5967C12.5934 44.6808 14.1993 44.3858 14.1993 44.8504C14.1993 44.9924 14.0776 45.0587 13.884 45.0587C13.5669 45.0587 13.0543 44.8559 12.7372 44.5886L12.3943 45.2818C12.7815 45.5842 13.353 45.7686 13.8748 45.7686C14.5643 45.7686 15.1433 45.457 15.1433 44.8025C15.1433 43.6926 13.5374 43.9599 13.5374 43.5082C13.5374 43.3939 13.637 43.3423 13.7918 43.3423C14.05 43.3423 14.498 43.5027 14.8151 43.6833L15.1525 42.9827C14.7643 42.748 14.3192 42.6243 13.8656 42.625ZM15.4751 42.6656V45.7446H16.3878V44.9131H16.8708C17.6655 44.9131 18.1227 44.4909 18.1227 43.7589C18.1227 43.0602 17.6655 42.6656 16.8708 42.6656H15.4751ZM16.3878 43.3662H16.8266C17.0994 43.3662 17.258 43.5174 17.258 43.7847C17.258 44.0613 17.0994 44.2088 16.8266 44.2088H16.3878V43.3681V43.3662ZM19.9775 42.638C19.0114 42.638 18.2997 43.298 18.2997 44.2014C18.2997 45.1104 19.0114 45.7833 19.9775 45.7833C20.9436 45.7833 21.6553 45.1067 21.6553 44.2014C21.6553 43.3017 20.9436 42.638 19.9775 42.638ZM19.9904 43.4031C20.396 43.4031 20.7205 43.7405 20.7205 44.207C20.7205 44.6716 20.3942 45.0182 19.9904 45.0182C19.5866 45.0182 19.2345 44.6716 19.2345 44.207C19.2345 43.7405 19.5829 43.4031 19.9904 43.4031ZM23.8069 45.7446H24.8412L24.218 44.7379C24.5517 44.548 24.7361 44.2143 24.7361 43.7589C24.7361 43.0602 24.2623 42.6656 23.4363 42.6656H22V45.7446H22.9145V44.9131H23.3976L23.805 45.7428L23.8069 45.7446ZM22.9145 44.2106V43.3681H23.4363C23.7092 43.3681 23.8677 43.5156 23.8677 43.7847C23.8677 44.0613 23.7092 44.2088 23.4363 44.2088H22.9145V44.2106ZM27.6529 43.3939V42.6656H24.95V43.3939H25.8405V45.7428H26.7587V43.3939H27.6547H27.6529Z" fill="#F05542"/>
<path d="M34.0207 14.1046L34.2512 15.9336C36.0691 15.705 37.9349 16.0756 39.6957 16.885L37.9257 19.9492L34.2198 17.8068L33.298 19.4016L37.0038 21.544L35.1601 24.7373L34.3987 24.2948L33.4768 25.8897L34.2438 26.3321L33.2427 28.0652L34.8375 28.9871L35.8386 27.254L43.5767 31.7232C42.8187 32.7758 41.8623 33.6702 40.7613 34.356L34.5572 30.7737L33.6354 32.3685L38.7332 35.3147C37.2952 35.8088 35.8128 36.2513 34.2788 36.067L34.0594 37.8959C36.3915 38.1765 38.7547 37.7661 40.8556 36.7156C42.9566 35.6651 44.7028 34.0209 45.8776 31.9868C47.4634 29.2337 47.8924 25.964 47.0705 22.8951C46.2485 19.8261 44.2428 17.2085 41.4933 15.6165C39.2344 14.31 36.6098 13.779 34.0207 14.1046ZM41.2757 17.8382C42.3438 18.5839 43.2544 19.5327 43.9558 20.6305C44.6571 21.7282 45.1354 22.9533 45.3632 24.2358L39.526 20.8711L41.2776 17.8382H41.2757ZM38.6042 22.4659L45.5144 26.4557C45.4478 27.7441 45.1309 29.0072 44.5815 30.1744L36.7605 25.6592L38.6042 22.4659Z" fill="#F05542"/>
<path fill-rule="evenodd" clip-rule="evenodd" d="M36.79 14.4457C35.61 15.3576 34.4875 16.3416 33.4289 17.392L34.7324 18.6955C35.7364 17.699 36.801 16.7655 37.9202 15.9004L36.79 14.4457ZM42.9572 18.8098C41.9542 26.0427 39.2772 31.5499 33.2593 36.067L34.3655 37.5419C40.7558 32.7446 43.7353 26.6253 44.7825 19.0679L42.9572 18.8098Z" fill="#F05542"/>
<path d="M37.3947 46.6849L37.7579 46.0525L35.4164 44.7011L35.0513 45.3316L35.8238 45.7778L34.6494 47.8114L35.4422 48.2723L36.6185 46.2369L37.3928 46.6849H37.3947Z" fill="#F05542"/>
<path d="M31.6609 3.80936L31.7991 3.82042C31.7534 3.81327 31.7072 3.80957 31.6609 3.80936ZM31.7991 3.82042C31.3751 3.75523 30.9413 3.81794 30.5531 4.00054C30.1649 4.18314 29.84 4.47733 29.6199 4.84553L27.1456 9.12294C27.0568 9.27473 27.0133 9.44873 27.0202 9.62443L27.0313 9.86964C27.0418 10.107 27.1435 10.3312 27.3152 10.4954C27.487 10.6596 27.7155 10.7512 27.9532 10.7509H29.4982C31.5558 10.7509 33.1856 12.3808 33.1856 14.4384V45.7815C33.191 46.721 32.8332 47.6262 32.1869 48.3082C31.5407 48.9902 30.656 49.3961 29.7176 49.4413C29.5192 49.4526 29.3299 49.5278 29.1777 49.6555C29.0255 49.7832 28.9187 49.9567 28.8731 50.15C28.8275 50.3434 28.8455 50.5463 28.9246 50.7286C29.0037 50.9108 29.1396 51.0627 29.312 51.1614L31.8378 52.6235C33.1092 53.3542 34.6185 53.551 36.0347 53.1708C37.451 52.7906 38.6588 51.8645 39.3934 50.5954L55.065 23.4523C55.7964 22.1814 55.9941 20.6724 55.6146 19.256C55.2351 17.8397 54.3094 16.6316 53.0405 15.8967L41.864 9.44375L38.796 7.67378L32.6085 4.10067C32.3582 3.95687 32.083 3.86178 31.7973 3.82042H31.7991ZM31.5281 5.64201C31.5834 5.65123 31.635 5.66967 31.6867 5.69916L37.8742 9.27228L40.9421 11.0422L52.1187 17.4952C52.541 17.7342 52.9116 18.0548 53.2088 18.4384C53.5059 18.822 53.7237 19.261 53.8495 19.7296C53.9753 20.1983 54.0066 20.6873 53.9414 21.1682C53.8763 21.649 53.7161 22.1121 53.4701 22.5304L37.7986 49.6754C37.5591 50.0977 37.238 50.4682 36.854 50.7652C36.47 51.0622 36.0307 51.2799 35.5618 51.4055C35.0928 51.5311 34.6036 51.5621 34.1225 51.4968C33.6414 51.4315 33.1782 51.2711 32.7597 51.025L31.6977 50.4129C33.5525 49.5242 35.0293 47.9737 35.0293 45.7815V14.4384C35.0293 11.3907 32.5458 8.90723 29.4982 8.90723H29.3968L31.2147 5.76738C31.27 5.67151 31.3732 5.61988 31.5281 5.64201Z" fill="#2B4255"/>
<path d="M16.5923 8.90723C16.3478 8.90723 16.1133 9.00435 15.9404 9.17723C15.7675 9.35011 15.6704 9.58459 15.6704 9.82908C15.6704 10.0736 15.7675 10.3081 15.9404 10.4809C16.1133 10.6538 16.3478 10.7509 16.5923 10.7509H29.4983C31.5558 10.7509 33.1857 12.3808 33.1857 14.4384V45.7815C33.1857 47.8409 31.5558 49.4689 29.4983 49.4689H16.5923C16.3478 49.4689 16.1133 49.566 15.9404 49.7389C15.7675 49.9118 15.6704 50.1463 15.6704 50.3908C15.6704 50.6353 15.7675 50.8697 15.9404 51.0426C16.1133 51.2155 16.3478 51.3126 16.5923 51.3126H29.4983C32.5459 51.3126 35.0294 48.831 35.0294 45.7815V14.4384C35.0294 11.3907 32.5459 8.90723 29.4983 8.90723H16.5923Z" fill="#2B4255"/>
<path d="M2.2207 8.90723C1.03704 8.90723 -0.000976562 9.84383 -0.000976562 11.0459V49.1739C-0.000976562 50.376 1.03704 51.3126 2.2207 51.3126H25.811C28.8587 51.3126 31.3421 48.831 31.3421 45.7815V14.4384C31.3421 11.3907 28.8587 8.90723 25.811 8.90723H2.2207ZM2.2207 10.7509H25.811C27.8686 10.7509 29.4984 12.3808 29.4984 14.4384V45.7815C29.4984 47.8409 27.8686 49.4689 25.811 49.4689H2.2207C1.96442 49.4689 1.84274 49.3214 1.84274 49.1739V11.0459C1.84274 10.8984 1.96442 10.7509 2.2207 10.7509Z" fill="#2B4255"/>
<path d="M44.5281 11.1584C44.329 11.1704 44.1392 11.2467 43.9872 11.3757C43.8351 11.5047 43.729 11.6796 43.6848 11.874C43.6405 12.0685 43.6605 12.272 43.7418 12.4542C43.823 12.6363 43.9611 12.7871 44.1354 12.8841L55.3138 19.3371C55.7356 19.5769 56.1055 19.8981 56.4019 20.2821C56.6984 20.6661 56.9156 21.1053 57.0408 21.574C57.1661 22.0427 57.1969 22.5316 57.1315 23.0123C57.066 23.493 56.9057 23.956 56.6597 24.3741L40.9881 51.5191C40.749 51.9411 40.4284 52.3112 40.0448 52.6081C39.6613 52.9049 39.2225 53.1224 38.7541 53.248C38.2857 53.3736 37.7969 53.4048 37.3164 53.3397C36.8358 53.2745 36.3729 53.1145 35.9548 52.8687L30.077 49.4763C29.9721 49.4096 29.8548 49.3648 29.7321 49.3446C29.6094 49.3245 29.4839 49.3293 29.3632 49.3589C29.2424 49.3885 29.1289 49.4422 29.0294 49.5168C28.93 49.5913 28.8466 49.6853 28.7844 49.7929C28.7222 49.9006 28.6824 50.0197 28.6674 50.1431C28.6524 50.2665 28.6625 50.3917 28.6972 50.5111C28.7318 50.6305 28.7902 50.7417 28.8689 50.8379C28.9477 50.9342 29.045 51.0135 29.1552 51.0711L35.033 54.4635C36.3034 55.1946 37.8118 55.3922 39.2277 55.0131C40.6436 54.6339 41.8515 53.709 42.5866 52.441L58.2582 25.296C58.9898 24.0254 59.1877 22.5165 58.8086 21.1002C58.4295 19.6839 57.5042 18.4757 56.2357 17.7405L45.0572 11.2875C44.8979 11.1921 44.7134 11.1471 44.5281 11.1584Z" fill="#2B4255"/>
</g>
<defs>
<clipPath id="clip0_107_1460">
<rect width="59" height="59" fill="white"/>
</clipPath>
</defs>
</svg>
