<svg width="35" height="36" viewBox="0 0 35 36" fill="none" xmlns="http://www.w3.org/2000/svg">
<path d="M25.6572 10.488C26.0892 10.488 26.5212 10.632 26.8452 10.956C27.2412 11.352 27.3492 11.748 27.3492 12.18V24.852C27.3492 25.356 27.2412 25.68 26.8452 26.04C26.5212 26.436 26.0892 26.58 25.6572 26.58C22.9212 26.58 20.2212 26.58 17.4852 26.58C14.7852 26.58 12.0492 26.58 9.38519 26.58C8.88119 26.58 8.44919 26.4 8.12519 26.04C7.72919 25.716 7.65719 25.356 7.65719 24.852V12.18C7.65719 11.748 7.72919 11.352 8.12519 10.956C8.44919 10.632 8.88119 10.488 9.38519 10.488H25.6572ZM18.7452 21.036L25.8732 13.404C26.0532 13.224 26.1252 13.008 25.9452 12.864C25.6932 12.756 25.5132 12.792 25.2252 13.08L18.8532 19.056C18.4932 19.524 17.9892 19.74 17.4852 19.74C16.9452 19.74 16.5132 19.524 16.1172 19.056L9.74519 13.08C9.45719 12.792 9.24119 12.684 9.02519 12.864C8.88119 13.008 8.91719 13.224 9.13319 13.404L16.2252 21.036C16.5492 21.504 16.9812 21.756 17.4852 21.756C17.9892 21.756 18.4212 21.504 18.7452 21.036ZM0.133188 18.408C0.133188 28.02 7.90919 35.832 17.5572 35.832C27.2052 35.832 34.9812 28.02 34.9812 18.408C34.9812 8.76 27.2052 0.947999 17.5572 1.02C7.90919 1.056 0.133188 8.76 0.133188 18.408Z" fill="white"/>
</svg>
