<svg width="32" height="44" viewBox="0 0 32 44" fill="none" xmlns="http://www.w3.org/2000/svg">
<rect width="32" height="44" fill="#7A7A7A"/>
<rect width="1920" height="1919" transform="translate(-446 -828)" fill="white"/>
<g filter="url(#filter0_dd_0_1)">
<rect x="-123" y="-26" width="304" height="160" rx="20" fill="white"/>
</g>
<g clip-path="url(#clip0_0_1)">
<path d="M15.6704 6.43835C12.4932 6.44226 9.44728 7.70612 7.20066 9.95274C4.95404 12.1994 3.69018 15.2453 3.68628 18.4225C3.68628 25.0304 9.06255 30.4066 15.6704 30.4066C22.2764 30.4066 27.6545 25.0304 27.6545 18.4225C27.6545 11.8146 22.2764 6.43835 15.6704 6.43835ZM14.7486 8.47013V11.9695H8.00979C8.84818 10.9722 9.8748 10.1499 11.0311 9.54947C12.1873 8.94904 13.4505 8.58227 14.7486 8.47013ZM16.5923 8.47013C19.2131 8.69709 21.6364 9.95585 23.3292 11.9695H16.5923V8.47013ZM6.76896 13.8132H14.7486V17.5006H5.7162C5.84158 16.1732 6.18268 14.9416 6.76713 13.8132H6.76896ZM16.5923 13.8132H24.5719C25.1582 14.9416 25.4974 16.1732 25.6228 17.5006H16.5923V13.8132ZM5.7162 19.3443H14.7486V23.0318H6.76896C6.18252 21.8825 5.82558 20.6301 5.71806 19.3443H5.7162ZM16.5923 19.3443H25.6228C25.5153 20.6301 25.1584 21.8826 24.5719 23.0318H16.5923V19.3443ZM8.00979 24.8755H14.7486V28.3767C13.4504 28.2643 12.1871 27.8973 11.0308 27.2965C9.87457 26.6958 8.84802 25.8731 8.00979 24.8755ZM16.5923 24.8755H23.3292C22.4912 25.8729 21.4649 26.6954 20.309 27.2962C19.1531 27.8969 17.8901 28.2641 16.5923 28.3767V24.8755Z" fill="#F05542"/>
<path fill-rule="evenodd" clip-rule="evenodd" d="M11.0095 7.77875C8.13887 14.8494 7.66318 21.6435 10.7975 28.9925L12.4937 28.2679C9.54376 21.3485 9.97335 15.2384 12.7205 8.47383L11.0095 7.77875ZM20.2465 7.77875L18.5356 8.47383C21.2827 15.2384 21.7141 21.3485 18.7623 28.2679L20.4586 28.9925C23.5929 21.6416 23.1172 14.8494 20.2465 7.77875Z" fill="#F05542"/>
<path d="M3.53687 34.6656V37.7446H4.44949V36.9131H4.93253C5.72718 36.9131 6.18442 36.4909 6.18442 35.7589C6.18442 35.0602 5.72718 34.6656 4.93253 34.6656H3.53687ZM4.44949 35.3662H4.88828C5.16115 35.3662 5.31973 35.5174 5.31973 35.7848C5.31973 36.0613 5.16115 36.2088 4.88828 36.2088H4.44949V35.3681V35.3662ZM8.36184 37.2505L8.54254 37.7428H9.51602L8.24754 34.6638H7.30726L5.99452 37.7428H6.9348L7.11919 37.2505H8.36184ZM8.12032 36.5831H7.37362L7.75158 35.5783L8.12032 36.5831ZM10.9928 34.6251C10.224 34.6251 9.72066 35.003 9.72066 35.5967C9.72066 36.6808 11.3265 36.3858 11.3265 36.8504C11.3265 36.9924 11.203 37.0588 11.0113 37.0588C10.6942 37.0588 10.1816 36.856 9.86447 36.5886L9.52153 37.2819C9.90871 37.5842 10.4803 37.7686 11.0021 37.7686C11.6916 37.7686 12.2705 37.457 12.2705 36.8025C12.2705 35.6926 10.6628 35.9599 10.6628 35.5082C10.6628 35.3939 10.7642 35.3423 10.9191 35.3423C11.1772 35.3423 11.6252 35.5027 11.9405 35.6834L12.2797 34.9827C11.8915 34.7481 11.4464 34.6243 10.9928 34.6251ZM13.8653 34.6251C13.0983 34.6251 12.5932 35.003 12.5932 35.5967C12.5932 36.6808 14.199 36.3858 14.199 36.8504C14.199 36.9924 14.0774 37.0588 13.8838 37.0588C13.5667 37.0588 13.0541 36.856 12.737 36.5886L12.3941 37.2819C12.7812 37.5842 13.3528 37.7686 13.8746 37.7686C14.5641 37.7686 15.143 37.457 15.143 36.8025C15.143 35.6926 13.5372 35.9599 13.5372 35.5082C13.5372 35.3939 13.6367 35.3423 13.7916 35.3423C14.0497 35.3423 14.4977 35.5027 14.8148 35.6834L15.1522 34.9827C14.7641 34.7481 14.3189 34.6243 13.8653 34.6251ZM15.4749 34.6656V37.7446H16.3875V36.9131H16.8706C17.6652 36.9131 18.1225 36.4909 18.1225 35.7589C18.1225 35.0602 17.6652 34.6656 16.8706 34.6656H15.4749ZM16.3875 35.3662H16.8263C17.0992 35.3662 17.2578 35.5174 17.2578 35.7848C17.2578 36.0613 17.0992 36.2088 16.8263 36.2088H16.3875V35.3681V35.3662ZM19.9772 34.638C19.0111 34.638 18.2995 35.298 18.2995 36.2014C18.2995 37.1104 19.0111 37.7833 19.9772 37.7833C20.9433 37.7833 21.655 37.1067 21.655 36.2014C21.655 35.3017 20.9433 34.638 19.9772 34.638ZM19.9902 35.4031C20.3958 35.4031 20.7203 35.7405 20.7203 36.207C20.7203 36.6716 20.3939 37.0182 19.9902 37.0182C19.5864 37.0182 19.2342 36.6716 19.2342 36.207C19.2342 35.7405 19.5827 35.4031 19.9902 35.4031ZM23.8066 37.7446H24.841L24.2178 36.738C24.5515 36.5481 24.7359 36.2143 24.7359 35.7589C24.7359 35.0602 24.262 34.6656 23.4361 34.6656H21.9998V37.7446H22.9143V36.9131H23.3973L23.8048 37.7428L23.8066 37.7446ZM22.9143 36.2107V35.3681H23.4361C23.7089 35.3681 23.8675 35.5156 23.8675 35.7848C23.8675 36.0613 23.7089 36.2088 23.4361 36.2088H22.9143V36.2107ZM27.6526 35.3939V34.6656H24.9497V35.3939H25.8403V37.7428H26.7584V35.3939H27.6545H27.6526Z" fill="#F05542"/>
<path d="M31.6609 -4.19066L31.7991 -4.17959C31.7534 -4.18675 31.7072 -4.19045 31.6609 -4.19066ZM31.7991 -4.17959C31.3751 -4.24479 30.9413 -4.18208 30.5531 -3.99948C30.1649 -3.81688 29.84 -3.52269 29.6199 -3.15449L27.1456 1.12292C27.0568 1.27471 27.0133 1.44872 27.0202 1.62441L27.0313 1.86963C27.0418 2.10702 27.1435 2.33121 27.3152 2.49541C27.487 2.65962 27.7155 2.75115 27.9532 2.75092H29.4982C31.5558 2.75092 33.1856 4.38077 33.1856 6.43835V37.7815C33.191 38.721 32.8332 39.6262 32.1869 40.3082C31.5407 40.9901 30.656 41.3961 29.7176 41.4412C29.5192 41.4526 29.3299 41.5277 29.1777 41.6555C29.0255 41.7832 28.9187 41.9566 28.8731 42.15C28.8275 42.3434 28.8455 42.5463 28.9246 42.7286C29.0037 42.9108 29.1396 43.0626 29.312 43.1614L31.8378 44.6235C33.1092 45.3541 34.6185 45.5509 36.0347 45.1708C37.451 44.7906 38.6588 43.8645 39.3934 42.5954L55.065 15.4523C55.7964 14.1814 55.9941 12.6724 55.6146 11.256C55.2351 9.83968 54.3094 8.63161 53.0405 7.89673L41.864 1.44373L38.796 -0.326234L32.6085 -3.89935C32.3582 -4.04314 32.083 -4.13823 31.7973 -4.17959H31.7991ZM31.5281 -2.35801C31.5834 -2.34879 31.635 -2.33035 31.6867 -2.30085L37.8742 1.27227L40.9421 3.04223L52.1187 9.49523C52.541 9.73416 52.9116 10.0548 53.2088 10.4384C53.5059 10.822 53.7237 11.261 53.8495 11.7296C53.9753 12.1983 54.0066 12.6873 53.9414 13.1682C53.8763 13.649 53.7161 14.1121 53.4701 14.5304L37.7986 41.6754C37.5591 42.0977 37.238 42.4682 36.854 42.7652C36.47 43.0622 36.0307 43.2799 35.5618 43.4055C35.0928 43.5311 34.6036 43.5621 34.1225 43.4968C33.6414 43.4315 33.1782 43.2711 32.7597 43.025L31.6977 42.4129C33.5525 41.5242 35.0293 39.9736 35.0293 37.7815V6.43835C35.0293 3.39069 32.5458 0.90721 29.4982 0.90721H29.3968L31.2147 -2.23263C31.27 -2.32851 31.3732 -2.38013 31.5281 -2.35801Z" fill="#2B4255"/>
<path d="M16.5923 0.907227C16.3478 0.907227 16.1133 1.00435 15.9404 1.17723C15.7675 1.35011 15.6704 1.58459 15.6704 1.82908C15.6704 2.07357 15.7675 2.30805 15.9404 2.48093C16.1133 2.65382 16.3478 2.75094 16.5923 2.75094H29.4983C31.5558 2.75094 33.1857 4.38078 33.1857 6.43837V37.7815C33.1857 39.8409 31.5558 41.4689 29.4983 41.4689H16.5923C16.3478 41.4689 16.1133 41.566 15.9404 41.7389C15.7675 41.9118 15.6704 42.1463 15.6704 42.3908C15.6704 42.6353 15.7675 42.8697 15.9404 43.0426C16.1133 43.2155 16.3478 43.3126 16.5923 43.3126H29.4983C32.5459 43.3126 35.0294 40.831 35.0294 37.7815V6.43837C35.0294 3.39071 32.5459 0.907227 29.4983 0.907227H16.5923Z" fill="#2B4255"/>
<path d="M2.22046 0.907227C1.03679 0.907227 -0.0012207 1.84383 -0.0012207 3.04593V41.1739C-0.0012207 42.376 1.03679 43.3126 2.22046 43.3126H25.8108C28.8584 43.3126 31.3419 40.831 31.3419 37.7815V6.43837C31.3419 3.39071 28.8584 0.907227 25.8108 0.907227H2.22046ZM2.22046 2.75094H25.8108C27.8683 2.75094 29.4982 4.38078 29.4982 6.43837V37.7815C29.4982 39.8409 27.8683 41.4689 25.8108 41.4689H2.22046C1.96418 41.4689 1.84249 41.3214 1.84249 41.1739V3.04593C1.84249 2.89844 1.96418 2.75094 2.22046 2.75094Z" fill="#2B4255"/>
<path d="M44.5281 3.1584C44.329 3.17042 44.1392 3.24666 43.9872 3.37569C43.8351 3.50472 43.729 3.67958 43.6848 3.87403C43.6405 4.06848 43.6605 4.27204 43.7418 4.45416C43.823 4.63628 43.9611 4.78715 44.1354 4.88412L55.3138 11.3371C55.7356 11.5769 56.1055 11.8981 56.4019 12.2821C56.6984 12.6661 56.9156 13.1053 57.0408 13.574C57.1661 14.0427 57.1969 14.5316 57.1315 15.0123C57.066 15.493 56.9057 15.956 56.6597 16.3741L40.9881 43.5191C40.749 43.9411 40.4284 44.3112 40.0448 44.6081C39.6613 44.9049 39.2225 45.1224 38.7541 45.248C38.2857 45.3736 37.7969 45.4048 37.3164 45.3397C36.8358 45.2745 36.3729 45.1145 35.9548 44.8687L30.077 41.4763C29.9721 41.4096 29.8548 41.3648 29.7321 41.3446C29.6094 41.3245 29.4839 41.3293 29.3632 41.3589C29.2424 41.3885 29.1289 41.4422 29.0294 41.5168C28.93 41.5913 28.8466 41.6853 28.7844 41.7929C28.7222 41.9006 28.6824 42.0197 28.6674 42.1431C28.6524 42.2665 28.6625 42.3917 28.6972 42.5111C28.7318 42.6305 28.7902 42.7417 28.8689 42.8379C28.9477 42.9342 29.045 43.0135 29.1552 43.0711L35.033 46.4635C36.3034 47.1946 37.8118 47.3922 39.2277 47.0131C40.6436 46.6339 41.8515 45.709 42.5866 44.441L58.2582 17.296C58.9898 16.0254 59.1877 14.5165 58.8086 13.1002C58.4295 11.6839 57.5042 10.4757 56.2357 9.74046L45.0572 3.28746C44.8979 3.19213 44.7134 3.14715 44.5281 3.1584Z" fill="#2B4255"/>
</g>
<defs>
<filter id="filter0_dd_0_1" x="-147" y="-42" width="352" height="208" filterUnits="userSpaceOnUse" color-interpolation-filters="sRGB">
<feFlood flood-opacity="0" result="BackgroundImageFix"/>
<feColorMatrix in="SourceAlpha" type="matrix" values="0 0 0 0 0 0 0 0 0 0 0 0 0 0 0 0 0 0 127 0" result="hardAlpha"/>
<feOffset dy="8"/>
<feGaussianBlur stdDeviation="12"/>
<feComposite in2="hardAlpha" operator="out"/>
<feColorMatrix type="matrix" values="0 0 0 0 0.690196 0 0 0 0 0.745098 0 0 0 0 0.772549 0 0 0 0.32 0"/>
<feBlend mode="normal" in2="BackgroundImageFix" result="effect1_dropShadow_0_1"/>
<feColorMatrix in="SourceAlpha" type="matrix" values="0 0 0 0 0 0 0 0 0 0 0 0 0 0 0 0 0 0 127 0" result="hardAlpha"/>
<feOffset dy="3"/>
<feGaussianBlur stdDeviation="2.5"/>
<feComposite in2="hardAlpha" operator="out"/>
<feColorMatrix type="matrix" values="0 0 0 0 0.690196 0 0 0 0 0.745098 0 0 0 0 0.772549 0 0 0 0.32 0"/>
<feBlend mode="normal" in2="effect1_dropShadow_0_1" result="effect2_dropShadow_0_1"/>
<feBlend mode="normal" in="SourceGraphic" in2="effect2_dropShadow_0_1" result="shape"/>
</filter>
<clipPath id="clip0_0_1">
<rect width="59" height="59" fill="white" transform="translate(0 -8)"/>
</clipPath>
</defs>
</svg>
