<svg width="35" height="36" viewBox="0 0 35 36" fill="none" xmlns="http://www.w3.org/2000/svg">
<path d="M0.133188 18.408C0.133188 28.02 7.90919 35.832 17.5572 35.832C27.2052 35.832 34.9812 28.02 34.9812 18.408C34.9812 8.76 27.2052 0.947999 17.5572 1.02C7.90919 1.056 0.133188 8.76 0.133188 18.408ZM26.7372 14.88C26.7372 14.952 26.7372 15.06 26.7372 15.096C26.7372 15.204 26.7372 15.348 26.7372 15.384C26.7372 18.264 25.6572 21.036 23.5332 23.7C21.4092 26.4 18.4212 27.696 14.4252 27.696C11.9772 27.696 9.78119 27.084 7.76519 25.824C8.05319 25.824 8.37719 25.896 8.84519 25.824C10.8612 25.572 12.6252 25.248 14.2092 23.988C13.2372 23.988 12.4452 23.7 11.6532 23.124C10.9692 22.512 10.4652 21.792 10.1772 21C10.5012 21.036 10.7892 21.072 10.9692 21.036C11.3652 20.928 11.7972 21.036 12.1572 20.892C11.1132 20.748 10.3212 20.28 9.63719 19.452C8.98919 18.66 8.62919 17.724 8.62919 16.68C8.62919 16.68 8.62919 16.68 8.62919 16.608C9.24119 16.932 9.92519 17.148 10.6092 17.148C9.31319 16.248 8.62919 15.096 8.62919 13.512C8.62919 12.756 8.88119 12.072 9.24119 11.424C10.3212 12.684 11.6172 13.728 13.2012 14.52C14.7852 15.276 16.4052 15.816 18.2412 15.852C18.1332 15.528 18.0972 15.204 18.0972 14.916C18.0972 13.728 18.4932 12.684 19.3572 11.82C20.1492 11.064 21.1932 10.596 22.4172 10.596C23.6412 10.596 24.6492 11.064 25.5132 12C26.2692 12.792 27.5292 11.46 28.2852 10.92C27.9252 11.928 27.3492 12.756 26.3772 13.26C27.2412 13.188 28.0692 12.936 28.9332 12.612C28.3212 13.404 27.6012 14.196 26.7372 14.88Z" fill="white"/>
</svg>
