<svg width="651" height="357" viewBox="0 0 651 357" fill="none" xmlns="http://www.w3.org/2000/svg">
<rect width="651" height="357" fill="#7A7A7A"/>
<rect width="1920" height="1919" transform="translate(-975 -263)" fill="white"/>
<path d="M60.7202 111.86C88.0277 88.5675 120.945 -51.93 233.75 21.2475C292.023 59.06 390.28 -11.2025 471.625 13.0525C546.315 35.3275 563.118 108.23 555.885 132.155C541.283 180.5 577.115 188.227 619.245 208.99C685.355 241.55 636.735 356.033 574.283 356.583C511.83 357.133 133.485 355.483 133.485 355.483C133.485 355.483 63.4702 350.148 25.7402 300.098C-14.8498 246.225 -9.81729 172.057 60.7202 111.86Z" fill="#EBF2F9"/>
<path d="M265.073 142.935L255.86 142.715C258.83 146.537 259.49 150.085 257.648 153.055C255.805 156.107 251.405 158.61 244.805 160.507C249.783 147.252 252.285 133.282 252.285 118.955C252.285 102.895 249.15 87.33 242.935 72.6725C236.968 58.51 228.388 45.7775 217.47 34.8875C206.553 23.97 193.848 15.39 179.685 9.36749C165.028 3.17999 149.435 0.0449829 133.403 0.0449829C117.343 0.0449829 101.778 3.17999 87.0926 9.36749C85.3326 10.11 83.6001 10.9075 81.8951 11.7325C81.8951 11.7325 81.8951 11.7325 81.8676 11.7325C76.7526 10.165 71.7751 8.89998 66.9626 7.90998C42.7076 2.98748 25.4926 6.39749 18.4801 17.48C11.8251 28.04 15.4551 43.935 28.6551 62.47C26.8676 65.77 25.2726 69.1525 23.7876 72.645C22.6601 75.2575 21.6701 77.8975 20.7626 80.5925C-4.04239 82.0775 -17.3249 86.45 -22.1649 94.3425C-27.7749 103.555 -20.1024 115.902 4.42761 127.92C7.81011 129.57 11.4401 131.22 15.2351 132.842C16.5001 143.98 19.3601 154.815 23.7876 165.21C29.7551 179.372 38.3351 192.105 49.2526 203.022C60.1701 213.912 72.8751 222.492 87.0376 228.487C101.695 234.675 117.288 237.81 133.348 237.81C149.38 237.81 164.945 234.675 179.63 228.487C193.793 222.492 206.498 213.912 217.415 203.022C228.03 192.408 236.473 180.033 242.413 166.31C254.513 163.807 262.488 159.875 265.65 154.677C267.905 151.157 267.63 147.17 265.073 142.935ZM236.665 162.405C228.608 163.862 218.543 164.687 206.8 164.825C188.568 165.045 167.64 163.615 145.613 160.7C147.455 156.657 149.298 152.505 151.058 148.27C157.905 150.552 164.533 152.367 170.885 153.66C178.145 155.145 184.773 155.86 190.685 155.86C204.545 155.86 214.473 151.872 219.368 144.09C220.165 142.797 220.825 141.45 221.348 140.02H214.28C214.17 140.24 214.033 140.46 213.895 140.652C210.265 146.427 202.125 149.425 190.685 149.425C185.213 149.425 178.998 148.737 172.15 147.362C166.183 146.152 159.94 144.447 153.505 142.33C155.21 138.067 156.86 133.75 158.455 129.35C162.773 117.47 166.458 105.727 169.428 94.425C183.013 96.4325 197.588 97.4225 213.098 97.4225C222.75 97.4225 232.76 97.0375 243.073 96.2675C244.613 103.692 245.383 111.31 245.383 119.037C245.383 134.025 242.468 148.655 236.665 162.405ZM89.5401 221.365C86.1026 220.127 84.3701 215.177 83.5176 211.272C82.1701 205.085 81.9226 196.395 82.8026 186.137C83.2426 180.94 83.9851 175.44 84.9476 169.665C99.0276 173.405 112.97 178.245 126.555 184.048C123.503 189.327 120.395 194.222 117.315 198.65C111.43 207.092 105.655 213.61 100.65 217.487C97.4601 219.935 92.9776 222.602 89.5401 221.365ZM129.635 178.52C115.418 172.387 100.815 167.327 86.0476 163.423C86.5701 160.755 87.1476 158.032 87.7526 155.255C91.8501 156.19 96.0301 157.097 100.238 157.95C112.558 160.48 124.878 162.625 136.895 164.357C134.558 169.307 132.11 174.038 129.635 178.52ZM102.988 153.495C98.2301 152.505 93.5276 151.487 88.9076 150.415C91.0801 141.367 93.7476 131.962 96.8551 122.365C113.053 132.32 129.525 140.405 145.118 146.152C143.165 150.827 141.158 155.365 139.095 159.792C127.243 158.115 115.143 155.997 102.988 153.495ZM63.4151 31.505C64.4601 33.6225 65.8626 36.235 67.7876 39.205C75.9826 51.855 86.7901 61.04 94.4076 66.485C98.7801 69.62 103.455 72.535 108.405 75.2025C103.895 85.0475 99.5776 95.58 95.6176 106.497C94.8751 108.532 94.1601 110.567 93.4726 112.602C69.8226 97.2025 49.7751 79.5475 36.6576 62.4425C39.9576 56.8325 43.7251 51.525 47.9326 46.5475C49.6926 44.485 51.5076 42.505 53.4051 40.58C53.6801 40.305 53.9276 40.0575 54.2026 39.7825C57.1451 36.84 60.2251 34.0625 63.4151 31.505ZM164.588 14.4275C168.025 15.665 169.758 20.615 170.638 24.52C171.985 30.7075 172.233 39.3975 171.353 49.655C170.363 60.875 168.135 73.635 164.78 87.22C160.738 86.5325 156.805 85.735 152.955 84.855C139.673 81.8025 127.573 77.6225 116.765 72.37C123.228 58.9225 130.048 46.905 136.868 37.1425C142.753 28.7 148.528 22.1825 153.533 18.305C156.145 16.27 159.665 14.125 162.745 14.125C163.35 14.125 163.983 14.2075 164.588 14.4275ZM151.085 90.905C155.018 91.8125 159.06 92.6375 163.185 93.3525C160.27 104.27 156.695 115.655 152.543 127.15C150.948 131.577 149.27 135.95 147.565 140.212C131.918 134.465 115.308 126.242 98.9726 116.095C99.8251 113.62 100.678 111.145 101.585 108.67C105.463 98 109.67 87.715 114.07 78.09C125.153 83.4525 137.528 87.77 151.085 90.905ZM212.575 39.755C222.86 50.04 230.945 62.03 236.61 75.3675C238.618 80.125 240.295 84.9925 241.615 89.97C215.793 91.8675 192.143 91.2625 170.995 88.21C174.35 74.4875 176.605 61.59 177.595 50.205C178.695 37.6375 178.558 22.7325 173.443 14.345C174.625 14.8125 175.808 15.28 176.963 15.775C190.328 21.4125 202.318 29.47 212.575 39.755ZM133.403 6.94748C141.158 6.94748 148.803 7.71748 156.255 9.28498C147.455 13.1075 138.463 23.7775 131.643 33.54C124.658 43.55 117.7 55.7875 111.128 69.4825C106.7 67.0625 102.493 64.45 98.5326 61.6725C85.4426 52.3775 77.6051 42.67 73.3426 36.1525C71.0601 32.6875 69.5476 29.745 68.5576 27.6275C73.1501 24.355 77.9901 21.44 83.0226 18.8825C85.0851 17.8375 87.1751 16.875 89.2926 15.9675C89.4576 15.9125 89.5951 15.83 89.7601 15.775C89.7876 15.7475 89.8426 15.7475 89.8701 15.72C90.3376 15.5275 90.7776 15.335 91.2451 15.17C91.3551 15.115 91.4926 15.06 91.6026 15.0325C104.885 9.66998 118.938 6.94748 133.403 6.94748ZM23.9801 20.9725C27.6101 15.1975 35.7501 12.2 47.1901 12.2C52.6626 12.2 58.8776 12.8875 65.7251 14.2625C68.3101 14.785 70.9776 15.4175 73.6726 16.105C64.7901 21.2475 56.6501 27.5175 49.3076 34.8875C47.7676 36.4 46.2826 37.9675 44.8526 39.59C43.0376 41.57 41.3326 43.66 39.6551 45.7775C36.9876 49.16 34.5401 52.68 32.2851 56.31C22.1926 41.35 19.1401 28.645 23.9801 20.9725ZM30.1676 75.395C31.1576 73.1125 32.2026 70.83 33.3026 68.63C47.1351 85.9275 67.5401 103.61 91.3551 118.927C87.9726 129.212 85.0851 139.305 82.7751 148.985C65.4501 144.805 49.3901 140.048 35.3101 134.96C32.3401 133.915 29.4801 132.815 26.7301 131.742C25.1076 131.11 23.5126 130.45 21.9176 129.79C21.6701 127.37 21.5051 124.922 21.4226 122.475C21.3951 121.292 21.3676 120.137 21.3676 118.982C21.3676 117.635 21.3951 116.232 21.4226 114.885C21.8076 104.71 23.5401 94.7825 26.5651 85.185C27.0876 83.5625 27.6101 81.9675 28.2151 80.345C28.8476 78.6675 29.4801 77.0175 30.1676 75.395ZM9.9826 124.4C-11.4124 113.95 -21.2024 103.885 -16.8299 96.7075C-13.3099 90.905 -0.439892 87 19.2501 85.5425C16.8301 93.6825 15.3451 102.125 14.7951 110.65C14.6026 113.18 14.5201 115.71 14.4926 118.295V118.955C14.4926 121.512 14.5751 124.097 14.7401 126.627C13.0901 125.912 11.5226 125.17 9.9826 124.4ZM26.2076 137.242C29.0951 138.342 32.0651 139.415 35.1176 140.46C49.1426 145.327 64.8451 149.837 81.6476 153.825C81.0426 156.547 80.4651 159.242 79.9701 161.882C78.5951 161.552 77.2201 161.222 75.8451 160.92C52.6076 155.64 35.1726 154.567 27.0876 154.375C25.0801 148.352 23.6226 142.165 22.6876 135.895C23.8701 136.335 25.0251 136.775 26.2076 137.242ZM30.1676 162.57C29.9201 161.965 29.6726 161.36 29.4251 160.727C39.2426 161.14 55.5776 162.735 74.6901 167.107C76.0651 167.41 77.4401 167.74 78.8426 168.098C77.7976 174.23 77.0276 180.087 76.5326 185.587C75.6251 196.01 75.5701 208.028 78.4576 216.607C69.6026 211.63 61.4901 205.47 54.2026 198.183C43.8901 187.898 35.8051 175.907 30.1676 162.57ZM176.99 222.19C163.158 228.047 148.528 231.017 133.403 231.017C121.743 231.017 110.385 229.257 99.4401 225.765C107.718 221.42 116.05 211.437 122.458 202.252C125.758 197.522 129.058 192.27 132.33 186.605C151.14 195.13 169.235 205.58 186.203 217.79C183.233 219.385 180.153 220.842 176.99 222.19ZM212.575 198.183C206.388 204.398 199.568 209.787 192.198 214.325C174.35 201.29 155.293 190.125 135.41 181.077C138.133 176.072 140.828 170.792 143.468 165.265C161.645 167.685 179.135 169.115 195.085 169.5C199.238 169.61 203.308 169.61 207.213 169.582C217.388 169.472 226.435 168.867 234.19 167.767C228.8 179.042 221.513 189.245 212.575 198.183Z" fill="#ADCBF9"/>
<path d="M140.498 276.695C140.498 276.695 153.203 261.872 141.268 252.44C141.268 252.44 132.55 247.16 125.455 247.6C125.455 247.6 135.52 264.485 132.275 266.163C129.03 267.84 122.43 246.555 122.43 246.555C122.43 246.555 102.603 244.63 96.2226 247.71C96.2226 247.71 113.163 261.57 109.588 262.395C106.013 263.22 87.7251 249.608 87.7251 249.608C87.7251 249.608 69.2726 252.742 70.2626 263.99C71.2526 275.237 77.6051 278.73 80.4101 278.427C83.2151 278.125 99.5501 271.882 99.9076 274.165C100.265 276.447 90.4201 283.928 83.5451 284.285C83.5451 284.285 96.5526 298.64 105.188 294.487C113.823 290.335 114.565 283.79 119.955 281.315C125.345 278.867 129.938 278.868 127.71 281.37C125.483 283.873 115.72 286.32 112.64 291.765C109.56 297.21 106.783 300.895 115.748 299.548C124.685 298.2 139.233 291.655 139.865 284.175C140.498 276.695 140.498 276.695 140.498 276.695Z" fill="#82B378"/>
<path d="M79.3101 264.292C79.3101 264.292 129.415 262.368 140.498 276.695C140.498 276.695 142.945 284.037 150.48 290.692L151.663 293.883C151.663 293.883 142.973 284.725 139.865 284.175C139.838 284.175 144.705 266.437 79.3101 264.292Z" fill="#82B378"/>
<path d="M150.453 290.692C150.453 290.692 161.205 298.64 161.948 312.858L159.995 313.023C159.995 313.023 156.558 298.337 150.343 292.59C144.155 286.842 150.453 290.692 150.453 290.692Z" fill="#82B378"/>
<path d="M184.91 258.05C184.91 258.05 164.698 246.72 174.13 231.375C174.13 231.375 181.665 221.942 189.75 219.522C189.75 219.522 185.433 242.43 189.75 242.98C194.068 243.53 192.72 217.102 192.72 217.102C192.72 217.102 214.005 206.872 222.365 207.67C222.365 207.67 209.165 230.055 213.483 229.505C217.8 228.955 232.623 206.322 232.623 206.322C232.623 206.322 254.458 202.28 257.95 215.205C261.443 228.13 255.805 234.62 252.56 235.417C249.315 236.215 228.58 235.967 229.103 238.662C229.653 241.357 243.65 245.675 251.488 243.255C251.488 243.255 242.853 264.54 231.55 263.467C220.22 262.395 216.728 255.382 209.715 254.832C202.703 254.282 197.588 256.18 201.08 258.077C204.573 259.975 216.453 258.682 222.118 263.495C227.783 268.307 232.348 271.277 221.843 273.422C211.338 275.567 192.473 274.22 188.678 266.135C184.91 258.05 184.91 258.05 184.91 258.05Z" fill="#A8D29F"/>
<path d="M247.995 219.22C247.995 219.22 191.4 237.562 184.91 258.022C184.91 258.022 185.185 267.18 179.52 277.712V281.755C179.52 281.755 185.46 268.005 188.678 266.108C188.678 266.135 176.028 248.343 247.995 219.22Z" fill="#82B378"/>
<path d="M179.52 277.712C179.52 277.712 170.803 290.967 175.78 307.11L178.035 306.505C178.035 306.505 175.863 288.74 180.428 279.802C184.965 270.865 179.52 277.712 179.52 277.712Z" fill="#82B378"/>
<path d="M152.763 242.43C152.763 242.43 179.41 227.497 166.98 207.257C166.98 207.257 157.025 194.827 146.383 191.61C146.383 191.61 152.075 221.805 146.383 222.52C140.69 223.235 142.478 188.42 142.478 188.42C142.478 188.42 114.4 174.917 103.4 175.99C103.4 175.99 120.808 205.47 115.115 204.782C109.423 204.067 89.8976 174.23 89.8976 174.23C89.8976 174.23 61.1051 168.895 56.4851 185.945C51.8651 202.995 59.3176 211.52 63.5801 212.592C67.8426 213.665 95.2051 213.307 94.4901 216.855C93.7751 220.402 75.2951 226.095 65.0101 222.905C65.0101 222.905 76.3676 250.982 91.3001 249.552C106.233 248.122 110.853 238.882 120.093 238.195C129.333 237.48 136.07 239.982 131.45 242.457C126.83 244.932 111.21 243.282 103.73 249.607C96.2776 255.96 90.2276 259.865 104.088 262.697C117.948 265.53 142.808 263.77 147.785 253.1C152.763 242.43 152.763 242.43 152.763 242.43Z" fill="#A8D29F"/>
<path d="M69.6025 191.28C69.6025 191.28 144.21 215.452 152.735 242.457C152.735 242.457 152.378 254.53 159.83 268.39V273.725C159.83 273.725 152.02 255.602 147.758 253.127C147.785 253.1 164.478 229.642 69.6025 191.28Z" fill="#82B378"/>
<path d="M159.858 268.362C159.858 268.362 171.353 285.825 164.808 307.11L161.838 306.312C161.838 306.312 164.725 282.882 158.703 271.112C152.68 259.315 159.858 268.362 159.858 268.362Z" fill="#82B378"/>
<path d="M153.643 353.255C124.823 353.255 101.448 329.88 101.448 301.06H205.838C205.865 329.88 182.49 353.255 153.643 353.255Z" fill="#80BDCC"/>
<path opacity="0.4" d="M140.8 352.842C142.918 353.117 145.09 353.255 147.29 353.255C176.11 353.255 199.485 329.88 199.485 301.06H186.505C186.533 327.68 166.568 349.652 140.8 352.842Z" fill="white"/>
<path d="M100.733 355.895H206.58C206.58 352.347 203.693 349.46 200.145 349.46H107.195C103.62 349.46 100.733 352.347 100.733 355.895Z" fill="#80BDCC"/>
<path d="M100.266 302.651H207.571V301.057H100.266V302.651Z" fill="#5F9AA8"/>
<path d="M269.94 161.305L254.43 345.72C254.43 345.72 252.808 356.555 261.113 356.583C274.78 356.61 329.148 356.775 329.148 356.775C329.148 356.775 318.863 354.602 318.973 349.377C319.11 343.217 337.095 159.573 337.095 159.573L269.94 161.305Z" fill="#C64E90"/>
<path d="M265.65 353.558C278.96 353.723 330.907 353.558 333.602 353.558C332.585 353.558 324.775 353.365 323.675 347.48C323.592 347.012 323.537 346.518 323.537 345.995C323.537 344.84 324.17 337.552 325.187 326.442C326.095 316.46 327.332 303.425 328.735 288.988C334.097 233.052 341.66 156.217 341.66 156.217L274.45 157.95L263.422 288.988L261.277 314.562L259.352 337.58L258.94 342.365C258.967 342.365 257.07 353.448 265.65 353.558Z" fill="#C64E90"/>
<path d="M106.755 60.9575L144.54 212.702L149.71 233.492L167.31 304.167H494.203L429.358 60.9575H106.755Z" fill="#DE7DAF"/>
<path d="M106.755 60.9575L101.53 62.69L160.353 309.448L167.31 304.167L106.755 60.9575Z" fill="#C64E90"/>
<path d="M160.353 309.447H485.238L494.203 304.167H167.31L160.353 309.447Z" fill="#C64E90"/>
<path d="M274.429 356.306H344.774V353.418H274.429V356.306Z" fill="#DE7DAF"/>
<path d="M260.865 309.337L261.305 314.562L261.333 314.755C261.333 314.755 307.037 319.127 325.215 326.442C325.682 321.437 326.205 315.662 326.81 309.337H260.865Z" fill="#C64E90"/>
<path d="M265.65 353.557C278.96 353.722 330.908 353.557 333.603 353.557C332.585 353.557 324.775 353.365 323.675 347.48C318.34 347.755 288.585 348.717 259.38 337.552L258.968 342.337C258.968 342.365 257.07 353.447 265.65 353.557Z" fill="#C64E90"/>
<path d="M155.843 256.427L167.723 304.167H277.778C231.248 289.372 209.22 267.757 200.338 256.427H155.843Z" fill="#C64E90"/>
<path d="M109.23 64.175L155.842 256.427H477.565L425.342 64.175H109.23Z" fill="#AFCDFB"/>
<path d="M175.477 193.947C231 184.735 243.127 138.04 344.795 167.162C389.73 180.032 422.372 160.975 444.785 135.73L425.342 64.175H109.23L145.887 215.37C152.955 204.205 162.525 196.092 175.477 193.947Z" fill="#D4EBF9"/>
<path d="M481.553 256.427H477.565L478.363 259.342L482.213 258.902L481.553 256.427Z" fill="#DE7DAF"/>
<path d="M136.923 47.3725L169.813 120.22L170.72 120.027L268.923 100.255C268.923 100.255 222.833 97.9725 217.855 94.3425C213.18 90.905 163.24 49.49 149.105 46.025C148.225 45.805 147.51 45.75 146.933 45.8325C136.923 47.3725 136.923 47.3725 136.923 47.3725Z" fill="#93CCEF"/>
<path d="M166.788 135.482C169.098 135.812 175.945 136.72 185.35 137.765C212.383 140.762 260.398 145.107 281.325 141.67C300.08 138.59 399.273 122.062 467.858 110.045C450.038 89.64 428.615 79.63 409.255 74.955C329.34 88.6225 224.813 106.69 211.585 110.072C189.805 115.655 160.82 121.43 160.82 121.43C160.82 121.43 160.655 122.117 160.518 123.217C160.105 126.765 159.968 134.437 166.788 135.482Z" fill="#E58638"/>
<path d="M166.788 135.483C169.098 135.813 175.945 136.72 185.35 137.765C212.383 140.763 260.398 145.108 281.325 141.67C300.08 138.59 399.273 122.062 467.858 110.045C502.288 104.022 529.018 99.1 533.94 97.615C548.68 93.16 579.013 79.52 575.163 73.3325C571.313 67.145 559.185 67.31 555.445 65.1925C555.39 65.165 555.335 65.1375 555.28 65.11C554.4 64.615 552.97 63.79 550.908 62.855C543.51 59.555 528.138 54.935 502.15 59.17C502.15 59.17 460.818 66.1275 409.255 74.955C329.34 88.6225 224.813 106.69 211.585 110.073C189.805 115.655 160.82 121.43 160.82 121.43C160.82 121.43 160.655 122.118 160.518 123.218C160.105 126.765 159.968 134.438 166.788 135.483Z" fill="#AFCDFB"/>
<path d="M166.788 135.455C169.07 135.812 175.945 136.692 185.35 137.737C187.935 127.535 197.725 122.337 197.725 122.337L160.545 123.19C160.105 126.765 159.968 134.437 166.788 135.455Z" fill="#93CCEF"/>
<path d="M434.225 85.185C434.83 85.075 435.435 85.4875 435.545 86.12L435.738 87.3025C435.848 87.9075 435.435 88.5125 434.803 88.6225C434.198 88.7325 433.593 88.32 433.483 87.6875L433.29 86.505C433.208 85.9 433.62 85.295 434.225 85.185Z" fill="#699FF0"/>
<path d="M422.95 87.165C423.555 87.055 424.16 87.4675 424.27 88.1L424.463 89.2825C424.573 89.8875 424.16 90.4925 423.528 90.6025C422.923 90.7125 422.318 90.3 422.208 89.6675L422.015 88.485C421.933 87.8525 422.345 87.275 422.95 87.165Z" fill="#699FF0"/>
<path d="M440 84.195C440.605 84.085 441.21 84.4975 441.32 85.13L441.513 86.3125C441.623 86.9175 441.21 87.5225 440.578 87.6325C439.973 87.7425 439.368 87.33 439.258 86.6975L439.065 85.515C438.955 84.8825 439.368 84.305 440 84.195Z" fill="#699FF0"/>
<path d="M445.748 83.205C446.353 83.095 446.958 83.5075 447.068 84.14L447.26 85.3225C447.37 85.9275 446.958 86.5325 446.325 86.6425C445.72 86.7525 445.115 86.34 445.005 85.7075L444.813 84.525C444.73 83.8925 445.143 83.2875 445.748 83.205Z" fill="#699FF0"/>
<path d="M451.523 82.1875C452.128 82.0775 452.733 82.49 452.843 83.1225L453.035 84.305C453.145 84.91 452.733 85.515 452.1 85.625C451.495 85.735 450.89 85.3225 450.78 84.69L450.588 83.5075C450.478 82.875 450.918 82.2975 451.523 82.1875Z" fill="#699FF0"/>
<path d="M457.27 81.1975C457.875 81.0875 458.48 81.5 458.59 82.1325L458.783 83.315C458.893 83.92 458.48 84.525 457.848 84.635C457.243 84.745 456.638 84.3325 456.528 83.7L456.335 82.5175C456.253 81.885 456.665 81.3075 457.27 81.1975Z" fill="#699FF0"/>
<path d="M463.045 80.18C463.65 80.07 464.255 80.4825 464.365 81.115L464.558 82.2975C464.668 82.9025 464.255 83.5075 463.623 83.6175C463.018 83.7275 462.413 83.315 462.303 82.6825L462.11 81.5C462.028 80.895 462.44 80.29 463.045 80.18Z" fill="#699FF0"/>
<path d="M468.82 79.19C469.425 79.08 470.03 79.4925 470.14 80.125L470.333 81.3075C470.443 81.9125 470.03 82.5175 469.398 82.6275C468.793 82.7375 468.188 82.325 468.078 81.6925L467.885 80.51C467.775 79.8775 468.188 79.3 468.82 79.19Z" fill="#699FF0"/>
<path d="M474.568 78.1725C475.173 78.0625 475.778 78.475 475.888 79.1075L476.08 80.29C476.19 80.895 475.778 81.5 475.145 81.61C474.54 81.72 473.935 81.3075 473.825 80.675L473.633 79.4925C473.55 78.8875 473.963 78.2825 474.568 78.1725Z" fill="#699FF0"/>
<path d="M480.343 77.1825C480.948 77.0725 481.553 77.485 481.663 78.1175L481.855 79.3C481.965 79.905 481.553 80.51 480.92 80.62C480.315 80.73 479.71 80.3175 479.6 79.685L479.408 78.5025C479.325 77.87 479.738 77.2925 480.343 77.1825Z" fill="#699FF0"/>
<path d="M485.98 76.1925C486.585 76.0825 487.19 76.495 487.3 77.1275L487.493 78.31C487.603 78.915 487.19 79.52 486.558 79.63C485.953 79.74 485.348 79.3275 485.238 78.695L485.045 77.5125C484.963 76.88 485.375 76.3025 485.98 76.1925Z" fill="#699FF0"/>
<path d="M491.755 75.2025C492.36 75.0925 492.965 75.505 493.075 76.1375L493.268 77.32C493.378 77.925 492.965 78.53 492.333 78.64C491.728 78.75 491.123 78.3375 491.013 77.705L490.82 76.5225C490.738 75.89 491.15 75.285 491.755 75.2025Z" fill="#699FF0"/>
<path d="M497.53 74.185C498.135 74.075 498.74 74.4875 498.85 75.12L499.043 76.3025C499.153 76.9075 498.74 77.5125 498.108 77.6225C497.503 77.7325 496.898 77.32 496.788 76.6875L496.595 75.505C496.485 74.8725 496.898 74.295 497.53 74.185Z" fill="#699FF0"/>
<path d="M544.638 64.835L550.908 62.855C552.97 63.79 554.428 64.615 555.28 65.11L545.683 68.1625C545.49 68.2175 545.325 68.245 545.133 68.245C544.418 68.245 543.73 67.75 543.51 67.035C543.235 66.1 543.73 65.1375 544.638 64.835Z" fill="#699FF0"/>
<path d="M394.873 100.805C395.01 100.805 395.12 100.805 395.258 100.777L397.018 100.475C397.595 100.365 398.118 100.063 398.448 99.5675C398.778 99.0725 398.915 98.495 398.833 97.9175L397.568 90.6025C397.348 89.3925 396.193 88.5675 394.983 88.7875L393.223 89.09C392.645 89.2 392.123 89.5025 391.793 89.9975C391.463 90.4925 391.325 91.07 391.408 91.6475L392.673 98.9625C392.865 100.063 393.8 100.805 394.873 100.805ZM395.23 100.613C394.103 100.805 393.058 100.063 392.865 98.935L391.6 91.62C391.518 91.0975 391.628 90.5475 391.958 90.08C392.26 89.64 392.755 89.3375 393.278 89.2275L395.038 88.925C396.138 88.7325 397.21 89.475 397.403 90.6025L398.668 97.9175C398.75 98.44 398.64 98.99 398.31 99.4575C398.008 99.8975 397.513 100.2 396.99 100.31L395.23 100.613Z" fill="#699FF0"/>
<path d="M383.433 102.813C383.57 102.813 383.68 102.813 383.818 102.785L385.578 102.483C386.788 102.263 387.585 101.108 387.393 99.8975L386.128 92.5825C385.908 91.3725 384.753 90.5475 383.543 90.7675L381.783 91.07C380.573 91.29 379.775 92.445 379.968 93.655L381.233 100.97C381.425 102.043 382.36 102.813 383.433 102.813ZM383.763 102.593C382.663 102.785 381.59 102.043 381.398 100.915L380.133 93.6C379.94 92.5 380.683 91.4275 381.81 91.235L383.57 90.9325C384.67 90.74 385.743 91.4825 385.935 92.61L387.2 99.925C387.393 101.025 386.65 102.098 385.523 102.29L383.763 102.593Z" fill="#699FF0"/>
<path d="M251.763 116.948C252.368 116.838 252.973 117.25 253.083 117.883L253.275 119.065C253.385 119.67 252.973 120.275 252.34 120.385C251.735 120.495 251.13 120.083 251.02 119.45L250.828 118.268C250.745 117.635 251.158 117.058 251.763 116.948Z" fill="#699FF0"/>
<path d="M257.538 115.93C258.143 115.82 258.748 116.233 258.858 116.865L259.05 118.048C259.16 118.653 258.748 119.258 258.115 119.368C257.51 119.478 256.905 119.065 256.795 118.433L256.603 117.25C256.493 116.645 256.905 116.04 257.538 115.93Z" fill="#699FF0"/>
<path d="M263.285 114.94C263.89 114.83 264.495 115.243 264.605 115.875L264.798 117.058C264.908 117.663 264.495 118.268 263.863 118.378C263.258 118.488 262.653 118.075 262.543 117.443L262.35 116.26C262.268 115.628 262.68 115.05 263.285 114.94Z" fill="#699FF0"/>
<path d="M269.06 113.923C269.665 113.813 270.27 114.225 270.38 114.858L270.573 116.04C270.683 116.645 270.27 117.25 269.638 117.36C269.033 117.47 268.428 117.058 268.318 116.425L268.125 115.243C268.015 114.638 268.455 114.033 269.06 113.923Z" fill="#699FF0"/>
<path d="M274.808 112.933C275.413 112.823 276.018 113.235 276.128 113.868L276.32 115.05C276.43 115.655 276.018 116.26 275.385 116.37C274.78 116.48 274.175 116.068 274.065 115.435L273.873 114.252C273.79 113.62 274.203 113.043 274.808 112.933Z" fill="#699FF0"/>
<path d="M280.583 111.915C281.188 111.805 281.793 112.218 281.903 112.85L282.095 114.033C282.205 114.638 281.793 115.243 281.16 115.353C280.555 115.463 279.95 115.05 279.84 114.418L279.648 113.235C279.565 112.63 279.978 112.025 280.583 111.915Z" fill="#699FF0"/>
<path d="M286.358 110.925C286.963 110.815 287.568 111.228 287.678 111.86L287.87 113.043C287.98 113.648 287.568 114.253 286.935 114.363C286.33 114.473 285.725 114.06 285.615 113.428L285.423 112.245C285.313 111.613 285.725 111.035 286.358 110.925Z" fill="#699FF0"/>
<path d="M292.105 109.908C292.71 109.798 293.315 110.21 293.425 110.843L293.618 112.025C293.728 112.63 293.315 113.235 292.683 113.345C292.078 113.455 291.473 113.043 291.363 112.41L291.17 111.228C291.088 110.623 291.5 110.018 292.105 109.908Z" fill="#699FF0"/>
<path d="M297.88 108.918C298.485 108.808 299.09 109.22 299.2 109.853L299.393 111.035C299.503 111.64 299.09 112.245 298.458 112.355C297.853 112.465 297.248 112.053 297.138 111.42L296.945 110.238C296.835 109.605 297.275 109.028 297.88 108.918Z" fill="#699FF0"/>
<path d="M365.805 97.0925C366.41 96.9825 367.015 97.395 367.125 98.0275L367.318 99.21C367.428 99.815 367.015 100.42 366.383 100.53C365.778 100.64 365.173 100.228 365.063 99.595L364.87 98.4125C364.76 97.8075 365.2 97.2025 365.805 97.0925Z" fill="#699FF0"/>
<path d="M371.58 96.1025C372.185 95.9925 372.79 96.405 372.9 97.0375L373.093 98.22C373.203 98.825 372.79 99.43 372.158 99.54C371.553 99.65 370.948 99.2375 370.838 98.605L370.645 97.4225C370.535 96.79 370.948 96.2125 371.58 96.1025Z" fill="#699FF0"/>
<path d="M377.328 95.085C377.933 94.975 378.538 95.3875 378.648 96.02L378.84 97.2025C378.95 97.8075 378.538 98.4125 377.905 98.5225C377.3 98.6325 376.695 98.22 376.585 97.5875L376.393 96.405C376.31 95.8 376.723 95.195 377.328 95.085Z" fill="#699FF0"/>
<path d="M383.103 94.095C383.708 93.985 384.313 94.3975 384.423 95.03L384.615 96.2125C384.725 96.8175 384.313 97.4225 383.68 97.5325C383.075 97.6425 382.47 97.23 382.36 96.5975L382.168 95.415C382.058 94.7825 382.47 94.205 383.103 94.095Z" fill="#699FF0"/>
<path d="M388.85 93.0775C389.455 92.9675 390.06 93.38 390.17 94.0125L390.363 95.195C390.473 95.8 390.06 96.405 389.428 96.515C388.823 96.625 388.218 96.2125 388.108 95.58L387.915 94.3975C387.833 93.7925 388.245 93.1875 388.85 93.0775Z" fill="#699FF0"/>
<path d="M394.625 92.0875C395.23 91.9775 395.835 92.39 395.945 93.0225L396.138 94.205C396.248 94.81 395.835 95.415 395.203 95.525C394.598 95.635 393.993 95.2225 393.883 94.59L393.69 93.4075C393.608 92.775 394.02 92.1975 394.625 92.0875Z" fill="#699FF0"/>
<path d="M400.4 91.0975C401.005 90.9875 401.61 91.4 401.72 92.0325L401.913 93.215C402.023 93.82 401.61 94.425 400.978 94.535C400.373 94.645 399.768 94.2325 399.658 93.6L399.465 92.4175C399.355 91.785 399.768 91.18 400.4 91.0975Z" fill="#699FF0"/>
<path d="M406.148 90.08C406.753 89.97 407.358 90.3825 407.468 91.015L407.66 92.1975C407.77 92.8025 407.358 93.4075 406.725 93.5175C406.12 93.6275 405.515 93.215 405.405 92.5825L405.213 91.4C405.13 90.7675 405.543 90.19 406.148 90.08Z" fill="#699FF0"/>
<path d="M411.923 89.09C412.528 88.98 413.133 89.3925 413.243 90.025L413.435 91.2075C413.545 91.8125 413.133 92.4175 412.5 92.5275C411.895 92.6375 411.29 92.225 411.18 91.5925L410.988 90.41C410.878 89.7775 411.318 89.1725 411.923 89.09Z" fill="#699FF0"/>
<path d="M314.82 105.975C315.425 105.865 316.03 106.278 316.14 106.91L316.333 108.093C316.443 108.698 316.03 109.303 315.398 109.413C314.793 109.523 314.188 109.11 314.078 108.478L313.885 107.295C313.803 106.663 314.215 106.085 314.82 105.975Z" fill="#699FF0"/>
<path d="M320.595 104.958C321.2 104.848 321.805 105.26 321.915 105.893L322.108 107.075C322.218 107.68 321.805 108.285 321.173 108.395C320.568 108.505 319.963 108.093 319.853 107.46L319.66 106.278C319.55 105.673 319.963 105.068 320.595 104.958Z" fill="#699FF0"/>
<path d="M326.343 103.968C326.948 103.858 327.553 104.27 327.663 104.902L327.855 106.085C327.965 106.69 327.553 107.295 326.92 107.405C326.315 107.515 325.71 107.103 325.6 106.47L325.408 105.288C325.325 104.655 325.738 104.078 326.343 103.968Z" fill="#699FF0"/>
<path d="M332.118 102.95C332.723 102.84 333.328 103.253 333.438 103.885L333.63 105.068C333.74 105.673 333.328 106.278 332.695 106.388C332.09 106.498 331.485 106.085 331.375 105.452L331.183 104.27C331.1 103.665 331.513 103.06 332.118 102.95Z" fill="#699FF0"/>
<path d="M337.893 101.96C338.498 101.85 339.103 102.263 339.213 102.895L339.405 104.078C339.515 104.683 339.103 105.288 338.47 105.398C337.865 105.508 337.26 105.095 337.15 104.463L336.958 103.28C336.848 102.648 337.26 102.07 337.893 101.96Z" fill="#699FF0"/>
<path d="M343.64 100.943C344.245 100.833 344.85 101.245 344.96 101.878L345.153 103.06C345.263 103.665 344.85 104.27 344.218 104.38C343.613 104.49 343.008 104.078 342.898 103.445L342.705 102.263C342.623 101.658 343.035 101.053 343.64 100.943Z" fill="#699FF0"/>
<path d="M349.415 99.9525C350.02 99.8425 350.625 100.255 350.735 100.888L350.928 102.07C351.038 102.675 350.625 103.28 349.993 103.39C349.388 103.5 348.783 103.088 348.673 102.455L348.48 101.273C348.37 100.64 348.783 100.063 349.415 99.9525Z" fill="#699FF0"/>
<path d="M355.163 98.9625C355.768 98.8525 356.373 99.265 356.483 99.8975L356.675 101.08C356.785 101.685 356.373 102.29 355.74 102.4C355.135 102.51 354.53 102.098 354.42 101.465L354.228 100.283C354.145 99.65 354.558 99.045 355.163 98.9625Z" fill="#699FF0"/>
<path d="M360.938 97.945C361.543 97.835 362.148 98.2475 362.258 98.88L362.45 100.063C362.56 100.668 362.148 101.273 361.515 101.383C360.91 101.493 360.305 101.08 360.195 100.448L360.003 99.265C359.92 98.6325 360.333 98.055 360.938 97.945Z" fill="#699FF0"/>
<path d="M388.493 124.785C385.11 124.153 384.01 119.862 386.65 117.662C389.318 115.49 392.975 113.18 397.21 112.493C405.9 111.063 403.068 124.922 400.208 125.527C398.503 125.857 393.003 125.61 388.493 124.785Z" fill="#93CCEF"/>
<path d="M395.065 109.523L398.228 127.673C398.228 127.673 407.605 129.212 422.043 127.04C430.87 125.72 436.7 123.603 439.89 122.173C441.898 121.265 442.86 120.605 442.86 120.605L439.56 101.575C438.708 101.135 437.553 100.887 436.178 100.75C424.628 99.76 396.798 108.56 396.798 108.56L395.065 109.523Z" fill="#93CCEF"/>
<path d="M436.178 100.777L439.89 122.172C441.898 121.265 442.86 120.605 442.86 120.605L439.56 101.575C438.735 101.162 437.58 100.887 436.178 100.777Z" fill="#555555"/>
<path d="M282.948 82.655C282.948 82.655 296.808 102.647 299.393 105.617C301.978 108.587 307.395 110.1 307.395 110.1H307.423L341.715 116.865C341.715 116.865 383.653 109.797 392.783 108.037C393.608 107.872 394.158 107.762 394.405 107.707C397.155 106.965 398.42 105.837 397.843 105.122C397.265 104.407 332.255 105.507 325.078 105.672C325.023 105.672 324.94 105.672 324.885 105.672C317.873 105.81 317.13 104.077 317.13 104.077L289.218 83.7275C288.86 83.3425 288.283 83.0675 287.623 82.9025C285.615 82.4075 282.948 82.655 282.948 82.655Z" fill="#93CCEF"/>
<path d="M287.568 82.93C295.103 88.76 315.92 104.875 317.873 105.92C319.963 107.047 378.4 107.845 392.755 108.065C393.58 107.9 394.13 107.79 394.378 107.735C397.128 106.992 398.393 105.865 397.815 105.15C397.238 104.435 332.228 105.535 325.05 105.7C317.845 105.865 317.103 104.105 317.103 104.105L289.19 83.755C288.805 83.37 288.228 83.095 287.568 82.93Z" fill="#699FF0"/>
<path d="M282.948 82.655C282.948 82.655 296.808 102.647 299.393 105.617C301.978 108.587 307.395 110.1 307.395 110.1H307.423C314.738 109.165 320.843 107.212 324.83 105.672C317.818 105.81 317.075 104.077 317.075 104.077L289.163 83.7275C288.805 83.3425 288.228 83.0675 287.568 82.9025C285.615 82.4075 282.948 82.655 282.948 82.655Z" fill="#699FF0"/>
<path d="M170.72 120.027L268.922 100.255C268.922 100.255 222.832 97.9725 217.855 94.3425C213.18 90.905 163.24 49.49 149.105 46.025C162.112 58.235 192.307 87.715 191.62 97.3125C190.96 106.442 177.485 115.875 170.72 120.027Z" fill="#699FF0"/>
<path d="M198.303 119.587C197.945 119.257 165.055 114.665 144.045 120.467L164.973 128.03L197.698 122.337C197.698 122.365 200.145 121.21 198.303 119.587Z" fill="#699FF0"/>
<path d="M466.07 241.358H298.595L279.812 175.357H447.287L466.07 241.358Z" fill="white"/>
<path d="M445.308 184.872H326.645L325.518 181.408H444.208L445.308 184.872Z" fill="#AFCDFB"/>
<path d="M447.288 192.297H328.625L327.525 188.833H446.188L447.288 192.297Z" fill="#AFCDFB"/>
<path d="M449.35 199.722H330.688L329.588 196.257H448.25L449.35 199.722Z" fill="#AFCDFB"/>
<path d="M451.825 207.147H296.285L295.158 203.682H450.725L451.825 207.147Z" fill="#AFCDFB"/>
<path d="M454.438 214.572H298.898L297.77 211.107H453.338L454.438 214.572Z" fill="#AFCDFB"/>
<path d="M439.12 218.312C433.455 218.312 428.89 222.905 428.89 228.542C428.89 234.207 433.483 238.772 439.12 238.772C444.785 238.772 449.35 234.18 449.35 228.542C449.35 222.877 444.785 218.312 439.12 218.312ZM439.12 237.892C433.95 237.892 429.77 233.712 429.77 228.542C429.77 223.372 433.95 219.192 439.12 219.192C444.29 219.192 448.47 223.372 448.47 228.542C448.47 233.712 444.29 237.892 439.12 237.892Z" fill="#AFCDFB"/>
<path d="M452.87 231.1C452.32 231.292 451.77 231.485 451.22 231.677C450.588 231.292 449.598 231.347 448.635 231.54C448.58 231.32 448.443 231.1 448.168 231.045C446.655 230.742 445.143 231.512 443.768 232.062C442.365 232.64 441.018 233.245 439.643 233.905C440.055 233.41 440.44 232.887 440.853 232.392C441.348 231.76 441.815 231.127 442.31 230.467C442.585 230.44 442.805 230.495 443.025 230.577C443.108 230.77 443.3 230.935 443.493 230.99C443.52 230.99 443.575 231.017 443.603 231.017C443.905 231.1 444.208 230.962 444.373 230.715C444.4 230.687 444.4 230.66 444.428 230.632C444.565 230.412 444.538 230.192 444.455 230C444.675 229.34 445.253 228.57 445.528 227.992C445.913 227.222 446.27 226.452 446.683 225.71C447.59 224.032 448.91 222.85 450.395 221.695C451.083 221.172 450.505 220.072 449.708 220.512C446.573 222.217 444.263 225.517 442.118 228.432C442.035 228.157 441.76 227.937 441.458 227.937C439.12 228.075 436.948 229.01 434.665 229.34C434.83 228.845 435.023 228.322 435.215 227.827C435.463 227.25 435.05 226.727 434.445 226.81C430.623 227.415 427.295 229.67 425.288 232.942C424.82 233.685 426.003 234.4 426.47 233.63C428.093 230.99 430.595 229.175 433.538 228.405C433.345 228.9 433.18 229.422 433.043 229.917C432.933 230.33 433.263 230.825 433.703 230.797C435.875 230.66 437.91 229.835 440.055 229.45C440.11 229.807 440.44 230.082 440.88 230H440.908C439.643 231.677 438.378 233.327 436.948 234.867C436.783 235.06 436.59 235.225 436.425 235.417C434.39 236.462 432.465 237.672 430.815 239.295C430.403 239.707 430.705 240.505 431.31 240.477C433.235 240.395 434.94 238.717 436.26 237.507C436.59 237.205 436.92 236.875 437.25 236.545C437.745 236.297 438.268 236.022 438.79 235.802C440.055 235.197 441.348 234.592 442.64 234.015C443.41 233.685 444.51 233.08 445.61 232.667C445.418 233.135 445.858 233.822 446.435 233.63C447.123 233.382 447.783 233.162 448.498 233.025C448.663 232.997 450.395 232.64 450.478 232.777C450.643 233.025 450.973 233.19 451.248 233.08C451.908 232.832 452.568 232.612 453.2 232.365C454.08 232.145 453.723 230.797 452.87 231.1Z" fill="#AFCDFB"/>
<path d="M322.878 187.54C322.52 187.017 321.943 186.715 321.338 186.715H289.713L292.298 188.392C293.288 189.025 294.47 189.382 295.653 189.382H319.358C319.908 189.382 320.32 189.905 320.155 190.455L317.928 197.907L322.933 189.52C323.29 188.887 323.263 188.145 322.878 187.54Z" fill="#AFCDFB"/>
<path d="M318.423 193.04L318.973 190.922C319.055 190.647 318.835 190.372 318.56 190.372H296.89L299.173 191.885C300.3 192.627 301.648 193.04 302.995 193.04H318.423Z" fill="#AFCDFB"/>
<path d="M302.94 194.057L304.343 195.295C305.36 196.202 306.653 196.697 308.028 196.697H317.515L318.23 193.865L302.94 194.057Z" fill="#AFCDFB"/>
<path d="M311.163 235.28H305.03L301.703 223.922H307.835L311.163 235.28Z" fill="#AFCDFB"/>
<path d="M318.973 235.28H312.84L309.513 223.922H315.645L318.973 235.28Z" fill="#AFCDFB"/>
<path d="M332.64 235.28H326.508L323.18 223.922H329.313L332.64 235.28Z" fill="#AFCDFB"/>
<path d="M340.478 235.28H334.318L330.99 223.922H337.15L340.478 235.28Z" fill="#AFCDFB"/>
<path d="M353.733 235.28H347.6L344.273 223.922H350.405L353.733 235.28Z" fill="#AFCDFB"/>
<path d="M361.543 235.28H355.41L352.083 223.922H358.215L361.543 235.28Z" fill="#AFCDFB"/>
<path d="M369.49 235.28H363.358L360.03 223.922H366.163L369.49 235.28Z" fill="#AFCDFB"/>
<path d="M377.328 235.28H371.168L367.84 223.922H374L377.328 235.28Z" fill="#AFCDFB"/>
<path d="M432.245 342.448C432.245 342.448 433.043 355.483 430.65 355.675C430.348 355.703 418.605 355.702 418.605 355.702L403.645 355.62C403.645 355.62 403.755 351.742 408.127 350.917C412.5 350.092 420.2 347.095 421.492 340.413C422.785 333.73 432.245 342.448 432.245 342.448Z" fill="#3D3D3D"/>
<path d="M403.755 342.448C403.755 342.448 404.553 355.483 402.16 355.675C401.858 355.703 390.115 355.702 390.115 355.702L375.155 355.62C375.155 355.62 375.265 351.742 379.638 350.917C384.01 350.092 391.71 347.095 393.003 340.413C394.295 333.73 403.755 342.448 403.755 342.448Z" fill="#3D3D3D"/>
<path d="M466.263 248.012L479.38 252.522C479.38 252.522 487.713 235.527 489.748 233.217C492.058 230.577 493.735 210.337 494.78 192.022C495.688 175.99 496.155 161.47 496.155 161.47C496.155 161.47 491.7 162.487 488.785 170.022C483.78 182.947 483.835 208.165 481.058 221.172C479.435 228.68 468.958 246.967 466.263 248.012Z" fill="#80BDCC"/>
<path d="M479.38 252.55C484.385 246.72 487.713 235.555 489.748 233.245C492.058 230.605 503.03 215.645 492.8 192.132C487.768 207.01 491.975 215.122 490.38 223.895C488.813 232.612 479.848 246.72 479.38 252.55Z" fill="#5F9AA8"/>
<path d="M517.248 349.927C517.248 349.927 518.485 351.027 521.373 351.027C524.673 351.027 525.498 349.927 525.498 349.927V303.7H517.248V349.927Z" fill="#82B378"/>
<path d="M471.79 284.89C471.79 284.917 471.79 284.972 471.817 285C472.092 287.062 472.505 288.988 473 290.72C473.935 294.13 475.172 296.908 476.327 298.833C480.81 306.368 489.28 314.783 509.63 317.533C510.62 317.67 511.637 317.78 512.682 317.89C514.58 318.082 516.587 318.22 518.677 318.33C518.815 318.33 518.952 318.33 519.09 318.357C519.227 318.357 519.365 318.357 519.502 318.385C525.415 318.247 532.042 317.147 539.44 315.387C554.592 311.785 564.492 304.387 570.735 295.367C571.257 294.597 571.78 293.827 572.247 293.03C573.485 290.995 574.585 288.877 575.492 286.705C578.957 278.592 580.277 269.875 580.415 261.762C580.305 254.062 579.095 247.132 577.775 242.21C576.73 238.36 575.135 234.703 572.962 231.485C572.385 230.633 571.78 229.807 571.12 229.037C569.03 226.535 566.555 224.39 563.64 222.74C556.408 218.615 532.565 214.49 512.38 225.16C475.2 244.74 469.617 268.94 471.79 284.89Z" fill="#A8D29F"/>
<path d="M478.033 301.472C483.945 308.375 489.28 315.442 509.63 317.697C510.62 317.807 511.638 317.917 512.683 318C514.58 318.165 516.588 318.275 518.678 318.357C518.815 318.357 518.953 318.357 519.09 318.357C519.228 318.357 519.365 318.357 519.503 318.385C525.415 318.247 532.043 317.147 539.44 315.387C554.593 311.785 564.493 304.387 570.735 295.367C571.258 294.597 571.78 293.827 572.248 293.03C560.753 290.28 536.168 285.467 511.748 287.447C498.493 288.52 484.77 289.702 473 290.72C472.588 290.775 476.08 299.19 478.033 301.472Z" fill="#82B378"/>
<path d="M547.69 180.555C547.498 179.785 547.305 179.015 547.085 178.245C544.17 167.96 539.44 160.507 531.988 159.27C531.053 161.827 521.923 166.035 513.948 165.622C513.068 165.567 511.775 164.385 511.748 164.385C505.45 163.505 502.453 160.122 502.755 159.655C502.48 159.682 496.128 161.442 496.128 161.442C490.628 185.532 489.968 198.925 496.595 233.3C499.015 245.867 495.303 252.687 496.128 253.485C497.558 254.915 513.453 255.327 526.213 255.822C527.753 255.877 529.265 255.932 530.723 255.987C540.045 256.29 547.745 256.4 547.745 256.4C548.378 255.602 549.533 248.315 550.33 238.057C551.65 221.75 551.98 197.797 547.69 180.555Z" fill="#80BDCC"/>
<path d="M527.615 160.452L520.025 166.75L508.475 164.962C508.585 163.862 509.163 159.022 509.658 154.897C510.07 151.542 510.428 148.655 510.428 148.655L524.233 143.127L524.645 142.962C524.645 143.045 524.645 143.1 524.645 143.182C524.618 143.732 524.59 144.282 524.563 144.805C524.315 154.237 527.615 160.452 527.615 160.452Z" fill="#E49963"/>
<path d="M495.743 290.28C457.105 293.057 445.088 292.562 443.74 294.405C435.215 306.092 434.363 308.1 417.038 331.53C413.738 335.985 409.833 341.237 405.185 347.48H387.118C387.118 347.48 406.615 310.3 422.18 285.11C428.34 275.155 433.868 267.097 437.36 263.908C449.433 252.907 497.53 253.155 497.53 253.155C497.53 253.155 539.303 252.137 542.575 258.325C543.318 259.672 524.838 288.162 495.743 290.28Z" fill="#555555"/>
<path d="M495.743 290.28C457.105 293.057 445.088 292.562 443.74 294.405C435.215 306.092 434.363 308.1 417.038 331.53L422.18 285.11C428.34 275.155 433.868 267.097 437.36 263.907C449.433 252.907 497.53 253.155 497.53 253.155C497.53 253.155 539.303 252.137 542.575 258.325C543.318 259.672 524.838 288.162 495.743 290.28Z" fill="#3D3D3D"/>
<path d="M546.178 264.732C546.178 264.732 544.885 288.135 515.79 290.225C477.153 293.002 469.178 292.095 466.648 294.432C454.218 306.037 462.44 308.512 433.318 347.452H415.03C415.03 347.452 437.36 273.532 447.453 264.677C459.718 253.925 508.943 253.842 508.943 253.842C508.943 253.842 543.318 250.57 546.59 256.757C547.333 258.105 546.178 264.732 546.178 264.732Z" fill="#555555"/>
<path d="M509.63 317.532C509.63 317.642 513.645 318.22 515.818 318.33C516.698 318.357 517.605 318.385 518.513 318.385C518.595 318.385 518.677 318.385 518.76 318.385C519.007 318.385 519.228 318.385 519.475 318.357C525.388 318.22 532.015 317.12 539.413 315.36C559.213 310.657 570.02 299.465 575.465 286.705C578.93 278.592 580.25 269.875 580.388 261.762C580.278 254.062 579.067 247.132 577.747 242.21C576.702 238.36 575.107 234.702 572.935 231.485C572.495 230.852 572.055 230.22 571.56 229.615C571.395 229.422 571.258 229.23 571.093 229.037C557.425 243.282 516.203 288.657 509.63 317.532Z" fill="#A8D29F"/>
<path d="M510.675 317.532C510.675 317.642 514.69 318.22 516.863 318.33C517.413 318.357 517.963 318.357 518.54 318.385C518.623 318.385 518.705 318.385 518.788 318.385C519.035 318.385 519.255 318.385 519.503 318.357C525.415 318.22 532.043 317.12 539.44 315.36C559.24 310.657 570.048 299.465 575.493 286.705C578.958 278.592 580.278 269.875 580.415 261.762C580.305 254.062 579.095 247.132 577.775 242.21C576.73 238.36 575.135 234.702 572.963 231.485C572.523 230.852 572.083 230.22 571.588 229.615C557.37 244.492 517.138 289.042 510.675 317.532Z" fill="#A8D29F"/>
<path d="M509.355 157.262C509.355 157.262 510.318 163.01 513.645 165.76L508.695 171.425C508.695 171.425 503.278 165.127 502.755 159.71C502.783 159.682 507.705 157.455 509.355 157.262Z" fill="#80BDCC"/>
<path d="M526.13 156.96C526.13 156.96 518.815 165.155 513.672 165.732L516.533 173.405C516.533 173.405 531.96 164.715 532.015 159.27C531.988 159.297 527.78 157.015 526.13 156.96Z" fill="#80BDCC"/>
<path d="M550.358 238.14C549.56 248.397 549.78 253.76 546.617 256.785C546.617 256.785 540.21 259.205 530.75 256.07C527.532 254.42 525.003 252.138 523.765 249.058C517.523 233.575 529.403 220.705 530.008 210.475C530.613 200.245 540.017 192.737 540.017 192.737C540.017 192.737 551.65 221.75 550.358 238.14Z" fill="#5F9AA8"/>
<path d="M568.15 355.647H477.758C482.048 346.242 500.665 339.175 522.94 339.175C545.243 339.175 563.833 346.242 568.15 355.647Z" fill="#A8D29F"/>
<path d="M521.648 240.175C521.648 240.175 515.515 241.77 513.508 242.897C511.5 243.997 507.458 249.305 508.365 250.13C512.903 254.282 513.59 249.69 519.173 248.177C520.19 247.902 524.838 242.705 524.838 242.705L521.648 240.175Z" fill="#E49963"/>
<path d="M516.67 253.017L507.458 221.2H454.85L464.365 254.31H464.53H517.028H533.39V253.017H516.67Z" fill="#93CCEF"/>
<path d="M531.988 159.297C531.988 159.297 542.438 161.002 547.663 166.42C552.888 171.837 561.743 216.277 559.515 222.492C557.315 228.735 539.605 241.385 526.955 246.61C526.955 246.61 520.713 243.805 520.328 238.965C520.328 238.965 541.833 220.87 542.85 216.057C543.84 211.245 531.988 159.297 531.988 159.297Z" fill="#80BDCC"/>
<path d="M524.618 143.155C524.59 143.705 524.562 144.255 524.535 144.777C521.867 147.665 515.57 153.797 509.63 154.897C510.043 151.542 510.4 148.655 510.4 148.655L524.205 143.127L524.618 143.155Z" fill="#D68D5D"/>
<path d="M508.97 149.755C508.97 149.755 525.525 150.525 525.828 140.185C526.13 129.872 528.495 123.025 517.935 122.09C507.375 121.182 505.203 125.032 504.268 128.47C503.333 131.907 504.68 149.287 508.97 149.755Z" fill="#E49963"/>
<path d="M525.828 140.212C525.828 140.212 524.59 126.435 509.85 126.93C495.11 127.425 501.49 113.482 514.167 111.42C514.167 111.42 512.847 116.342 520.822 117.112C537.542 118.735 527.313 138.012 525.828 140.212Z" fill="#555555"/>
<path d="M620.345 339.45L620.318 310.547C620.318 301.857 613.195 294.762 604.533 294.79L537.873 294.817C529.183 294.817 522.088 301.94 522.115 310.602L522.143 339.505C522.143 348.195 529.348 355.647 538.01 355.647L604.588 355.235C613.25 355.235 620.345 348.14 620.345 339.45Z" fill="#555555"/>
<path d="M629.118 339.78L629.09 310.547C629.09 301.83 621.968 294.707 613.25 294.735L590.343 294.762V288.52C590.343 285.632 588.005 283.295 585.118 283.295H583.798H571.863H565.18C563.778 283.295 562.485 283.845 561.495 284.835C560.505 285.825 559.955 287.145 559.955 288.52V294.762H546.673C546.15 294.762 545.655 294.79 545.16 294.845C545.16 294.845 545.16 294.845 545.133 294.845C545.105 294.845 545.078 294.845 545.05 294.845C537.103 295.642 530.833 302.435 530.833 310.602L530.86 339.835C530.86 347.37 536.195 353.722 543.29 355.29C544.39 355.537 545.518 355.675 546.7 355.675H546.728L613.25 355.647C622.023 355.62 629.145 348.47 629.118 339.78ZM563.255 294.735V288.492C563.255 287.42 564.135 286.54 565.208 286.54H571.698H582.78H585.118C585.31 286.54 585.503 286.567 585.695 286.622C586.493 286.87 587.07 287.612 587.07 288.492V294.735H563.255Z" fill="#93CCEF"/>
</svg>
