<svg width="35" height="36" viewBox="0 0 35 36" fill="none" xmlns="http://www.w3.org/2000/svg">
<path d="M17.5572 35.832C27.2052 35.832 34.9812 28.02 34.9812 18.408C34.9812 8.76 27.2052 0.947999 17.5572 1.02C7.90919 1.056 0.133188 8.76 0.133188 18.408C0.133188 28.02 7.90919 35.832 17.5572 35.832ZM17.7012 25.896C17.7012 25.896 12.1572 25.86 10.4292 25.68C9.92519 25.572 8.91719 25.572 8.05319 24.744C7.40519 24.096 7.26119 22.656 7.26119 22.656C7.26119 22.656 7.00919 20.928 7.00919 19.2V17.652C7.00919 15.888 7.26119 14.124 7.26119 14.124C7.26119 14.124 7.40519 12.684 8.05319 12.072C8.91719 11.172 9.78119 11.172 10.2132 11.136C13.2012 10.956 17.6292 10.956 17.6292 10.956H17.7012C17.7012 10.956 22.1652 10.956 25.0812 11.136C25.5492 11.172 26.4492 11.172 27.2772 12.072C27.9252 12.684 28.0692 14.124 28.0692 14.124C28.0692 14.124 28.3212 15.888 28.3212 17.652V19.2C28.3212 20.928 28.0692 22.656 28.0692 22.656C28.0692 22.656 27.9252 24.096 27.2772 24.744C26.4492 25.572 25.5492 25.572 25.0812 25.68C22.1652 25.896 17.7012 25.896 17.7012 25.896ZM14.1372 22.548L22.5612 18.156L14.1372 13.764V22.548Z" fill="white"/>
</svg>
